<svg width="168" height="32" viewBox="0 0 168 32" fill="none" xmlns="http://www.w3.org/2000/svg">
<g opacity="0.6">
<path d="M158.053 27.1368C158.053 24.7041 160.028 22.7305 162.46 22.7305C164.892 22.7305 166.865 24.7041 166.865 27.1368C166.865 29.5694 164.892 31.5418 162.46 31.5418C160.028 31.5418 158.053 29.5694 158.053 27.1368Z" fill="white"/>
<path d="M17.5278 15.4668C17.5278 12.6759 16.9886 10.6053 15.9099 9.25642C14.83 7.90877 13.1941 7.23557 10.9948 7.23557H8.65528V24.3024H10.4452C12.8881 24.3024 14.6782 23.5782 15.8181 22.1248C16.9566 20.6738 17.5278 18.4541 17.5278 15.4668ZM25.8712 15.1762C25.8712 20.2608 24.5044 24.1787 21.7708 26.9288C19.0373 29.6802 15.1946 31.056 10.2413 31.056H0.616455V0.587891H10.9131C15.6892 0.587891 19.3764 1.83863 21.9748 4.33886C24.572 6.84036 25.8712 10.4511 25.8712 15.1762Z" fill="white"/>
<path d="M52.5321 31.0555H60.1909V0.459961H52.5321V31.0555Z" fill="white"/>
<path d="M70.9498 19.6435C70.9498 21.5942 71.2048 23.0821 71.7136 24.1046C72.2236 25.1284 73.0777 25.6397 74.2787 25.6397C75.467 25.6397 76.3072 25.1284 76.7968 24.1046C77.2864 23.0821 77.5299 21.5942 77.5299 19.6435C77.5299 17.703 77.2825 16.2393 76.7866 15.2512C76.2893 14.2605 75.4416 13.7645 74.2394 13.7645C73.0638 13.7645 72.2236 14.258 71.7136 15.2397C71.2048 16.2227 70.9498 17.6902 70.9498 19.6435ZM85.3252 19.6435C85.3252 23.3601 84.351 26.2593 82.3977 28.3376C80.4458 30.417 77.7135 31.4574 74.201 31.4574C70.8325 31.4574 68.1511 30.3941 66.161 28.2674C64.1682 26.1407 63.1725 23.267 63.1725 19.6435C63.1725 15.9384 64.1479 13.0595 66.1012 11.0068C68.0544 8.95408 70.793 7.92773 74.3196 7.92773C76.4985 7.92773 78.4263 8.40332 80.0965 9.35318C81.768 10.303 83.0583 11.6634 83.9648 13.4357C84.8726 15.2053 85.3252 17.2759 85.3252 19.6435Z" fill="white"/>
<path d="M88.3667 31.056H96.0268V19.3467V8.32959H88.3667V31.056Z" fill="white"/>
<path d="M88.3665 5.58055H96.0265V0.458984H88.3665V5.58055Z" fill="white"/>
<path d="M111.545 25.2592C112.579 25.2592 113.811 24.9966 115.248 24.4751V30.1933C114.215 30.6472 113.233 30.9723 112.3 31.1649C111.367 31.3599 110.272 31.4568 109.018 31.4568C106.447 31.4568 104.593 30.8104 103.454 29.5202C102.321 28.2299 101.752 26.2486 101.752 23.575V14.2064H99.0698V8.33134H101.752V2.52764L109.471 1.18506V8.33134H114.358V14.2064H109.471V23.0522C109.471 24.5235 110.163 25.2592 111.545 25.2592Z" fill="white"/>
<path d="M129.274 25.2592C130.308 25.2592 131.54 24.9966 132.976 24.4751V30.1933C131.945 30.6472 130.962 30.9723 130.029 31.1649C129.094 31.3599 128.003 31.4568 126.747 31.4568C124.175 31.4568 122.322 30.8104 121.185 29.5202C120.05 28.2299 119.481 26.2486 119.481 23.575V14.2064H116.797V8.33134H119.481V2.43968L127.198 1.18506V8.33134H132.088V14.2064H127.198V23.0522C127.198 24.5235 127.891 25.2592 129.274 25.2592Z" fill="white"/>
<path d="M142.641 16.8747C142.746 15.6303 143.102 14.7187 143.709 14.1361C144.318 13.5547 145.07 13.264 145.97 13.264C146.952 13.264 147.732 13.5904 148.311 14.2483C148.894 14.9023 149.197 15.7782 149.222 16.8747H142.641ZM153.443 10.607C151.622 8.82201 149.039 7.92822 145.698 7.92822C142.185 7.92822 139.482 8.95457 137.588 11.0073C135.694 13.06 134.747 16.0052 134.747 19.8429C134.747 23.5595 135.771 26.4256 137.813 28.4375C139.857 30.4494 142.727 31.4566 146.423 31.4566C148.198 31.4566 149.725 31.3355 151.005 31.0946C152.278 30.8561 153.509 30.4251 154.704 29.803L153.527 24.6814C152.659 25.0358 151.833 25.3087 151.052 25.4885C149.925 25.7498 148.689 25.8812 147.342 25.8812C145.866 25.8812 144.701 25.5203 143.846 24.7987C142.992 24.0758 142.537 23.0788 142.485 21.8089H156.175V18.3193C156.175 14.9623 155.265 12.3907 153.443 10.607Z" fill="white"/>
<path d="M36.0364 16.8747C36.1409 15.6303 36.4966 14.7187 37.1034 14.1361C37.7116 13.5547 38.4653 13.264 39.3667 13.264C40.3459 13.264 41.1261 13.5904 41.7063 14.2483C42.2889 14.9023 42.5911 15.7782 42.6179 16.8747H36.0364ZM46.8393 10.607C45.0174 8.82201 42.4355 7.92822 39.0926 7.92822C35.5786 7.92822 32.8769 8.95457 30.9835 11.0073C29.0902 13.06 28.1417 16.0052 28.1417 19.8429C28.1417 23.5595 29.1643 26.4256 31.2094 28.4375C33.2519 30.4494 36.1218 31.4566 39.818 31.4566C41.5927 31.4566 43.1201 31.3355 44.4002 31.0946C45.6726 30.8561 46.9044 30.4251 48.1003 29.803L46.9222 24.6814C46.0539 25.0358 45.2277 25.3087 44.4487 25.4885C43.3191 25.7498 42.0836 25.8812 40.7371 25.8812C39.262 25.8812 38.0956 25.5203 37.2414 24.7987C36.3858 24.0758 35.932 23.0788 35.8797 21.8089H49.5703V18.3193C49.5703 14.9623 48.66 12.3907 46.8393 10.607Z" fill="white"/>
</g>
</svg>
