<svg width="65" height="74" viewBox="0 0 65 74" fill="none" xmlns="http://www.w3.org/2000/svg">
<g opacity="0.6">
<path fill-rule="evenodd" clip-rule="evenodd" d="M21.3437 4.29723C21.2138 4.33999 21.4731 4.25392 21.3437 4.29723V4.29723ZM21.3437 4.29723C21.3218 4.30545 21.3678 4.28955 21.3437 4.29723V4.29723Z" fill="white"/>
<path fill-rule="evenodd" clip-rule="evenodd" d="M32.3216 70.0704H32.4028C36.1965 70.0704 39.7698 69.5145 43.2242 68.4712C46.9363 67.1796 50.4614 64.587 52.5912 61.3618C56.101 56.2244 59.2933 46.2894 59.4293 36.3999V36.3703C59.2933 26.4781 56.1016 16.5469 52.5912 11.4067C50.4614 8.1804 47.018 5.59057 43.3037 4.2973C39.8493 3.25512 36.1148 2.69922 32.3216 2.69922C28.5312 2.69922 24.7961 3.25457 21.3433 4.2973C17.6297 5.59057 14.1879 8.1804 12.0602 11.4067C8.54442 16.5464 5.35592 26.4775 5.21667 36.3703V36.3999C5.35538 46.2894 8.54442 56.2244 12.0602 61.3618C14.1873 64.587 17.6297 67.1692 21.3433 68.4608C24.878 69.5291 28.5506 70.0714 32.2432 70.0704H32.3216Z" fill="white"/>
<path fill-rule="evenodd" clip-rule="evenodd" d="M57.3335 36.3841C57.4569 43.834 55.1867 52.8781 52.9981 57.6904C50.575 63.1875 46.8722 66.5339 41.436 68.0212C38.5085 68.769 35.4368 69.1544 32.2779 69.1544C29.1212 69.1544 26.0319 68.769 23.1055 68.0212C17.667 66.5339 13.9638 63.1881 11.5422 57.6904C9.35152 52.8781 7.0846 43.834 7.20521 36.3841C7.08405 28.9353 9.35152 19.8939 11.5422 15.0794C13.9638 9.58342 17.667 6.23594 23.1055 4.7486C26.0319 3.99808 29.1212 3.61377 32.2779 3.61377C35.4362 3.61377 38.5085 3.99808 41.436 4.7486C46.8722 6.23594 50.575 9.58288 52.9981 15.0794C55.1867 19.8945 57.4569 28.9353 57.3335 36.3841Z" fill="black"/>
<path fill-rule="evenodd" clip-rule="evenodd" d="M32.3658 11.5703C34.9693 11.5703 37.5679 11.9354 39.9653 12.5818C42.5146 13.3109 44.6116 15.0691 45.6642 17.4649C47.9536 22.3753 49.4579 29.4409 49.4579 36.3842C49.4579 43.3292 47.9536 50.3947 45.6642 55.3036C44.6116 57.6999 42.5151 59.4591 39.9653 60.1866C37.4873 60.8545 34.9323 61.1945 32.3658 61.1981H32.2819C29.68 61.1981 27.0814 60.8352 24.684 60.1866C22.1326 59.4591 20.0362 57.6999 18.9819 55.3036C16.6942 50.3947 15.1887 43.3292 15.1887 36.3842C15.1887 29.4409 16.6942 22.3748 18.9819 17.4649C20.0362 15.0691 22.1326 13.3109 24.684 12.5818C27.1617 11.9148 29.716 11.5748 32.2819 11.5703H32.3658Z" fill="white"/>
<path fill-rule="evenodd" clip-rule="evenodd" d="M36.0472 21.0499C35.6865 20.4408 35.9831 20.9858 35.6048 20.2764L36.0472 21.0499ZM28.3106 35.0544V37.5516L19.7161 37.5543V35.0582L28.3106 35.0544ZM26.3672 56.6809C26.1835 56.2856 26.1139 56.1458 26.0952 55.7396C27.894 55.7396 29.1056 55.7396 31.0107 55.7407C30.9991 56.4221 30.611 57.0893 29.9953 57.535C29.3128 58.0312 28.1802 58.1392 27.4258 57.7176C26.9927 57.5131 26.6035 57.0893 26.3672 56.6809Z" fill="black"/>
<path fill-rule="evenodd" clip-rule="evenodd" d="M31.6692 54.6835L29.0338 54.6873V53.4658L31.6774 53.4647L32.5091 52.4812C32.9169 52.9527 32.9438 52.9878 33.3654 53.4647H36.0068V54.6868L33.3599 54.6829V57.7174H31.6686L31.6692 54.6835ZM31.9822 50.8969C32.5211 50.7154 33.2843 50.4056 33.4399 49.881C33.3994 49.0691 33.958 48.4145 34.378 47.767C34.5868 47.4841 34.6137 47.3142 34.5534 47.0099C35.3938 47.0434 36.2463 47.744 36.5698 48.5334C36.9037 49.3311 36.7776 50.3777 36.2584 51.0476C35.6104 51.836 34.7146 52.2477 33.668 52.0618C33.0096 51.9111 32.361 51.5142 31.9822 50.8969ZM25.6403 39.9378C25.1699 39.7081 24.5362 39.611 24.0132 39.8605C23.5905 39.9762 23.1459 40.4767 23.1059 40.9723C23.0773 42.4596 23.1311 42.9185 23.1059 44.5522C23.0773 44.8093 22.9425 44.9316 22.6212 44.9316C22.3482 44.9162 22.1465 44.7814 22.1492 44.5462V40.8966C22.1256 40.5096 22.0631 40.1318 21.7934 39.8402L19.9026 40.4548L19.731 40.5162C20.2112 40.8709 20.431 40.8813 20.4733 41.4701L20.4683 46.1393L20.4963 46.386L20.5648 46.5494L20.6185 46.6974L20.6843 46.818C20.9968 47.3164 21.5226 47.5209 21.8915 47.6124C22.0543 47.6612 22.3416 47.6842 22.5033 47.6853C22.9924 47.6881 23.4556 47.6546 23.9573 47.3049C24.7341 46.6952 24.5636 45.63 24.5844 44.0813C24.5883 43.6471 24.6179 43.4015 24.8892 43.1531C25.114 42.981 25.4287 42.9267 25.7193 42.9914C26.0487 43.0802 26.1008 43.1071 26.4314 43.3242C26.4391 41.9876 26.4802 40.3402 25.6403 39.9378ZM43.1721 45.7961C41.7938 44.4398 39.4052 42.5506 39.21 41.7502C39.0045 41.2102 39.0708 40.5622 39.0593 39.9361C39.4567 39.6225 39.7862 39.3501 40.267 38.9734C40.2309 39.9306 40.0965 40.9027 40.557 41.4695C41.6858 42.5912 42.7061 43.6065 43.722 44.6005C44.1019 45.0111 44.4018 45.5927 44.1534 46.1338C44.0345 46.3921 43.8738 46.6821 43.6995 46.9206C43.7 46.397 43.4742 46.0944 43.1721 45.7961ZM35.3609 38.9159C36.4113 38.9005 36.7529 38.9285 37.8461 38.9082V46.2852H35.3522L35.3609 38.9159Z" fill="black"/>
<path fill-rule="evenodd" clip-rule="evenodd" d="M40.9407 39.5993C41.2038 39.306 41.2981 39.1991 41.6079 38.897L42.2362 39.6514V41.7495C43.1215 41.3169 42.9077 40.0615 42.9077 38.9705C43.4313 39.4009 43.6966 39.6437 44.1988 40.1157C44.4844 41.3712 43.7301 42.0861 43.1654 42.9665L40.9401 40.8405L40.9407 39.5993ZM42.9664 33.9586L43.3014 32.5524L44.3912 32.389L44.389 28.9056C43.9669 28.967 43.7948 29.0136 43.4532 29.0536V26.4095C42.8803 26.5263 42.2734 26.733 41.6704 26.8738V31.258C41.6616 31.4702 41.3245 31.5409 41.2548 31.5382H41.1638C40.9467 31.5382 40.7324 31.3891 40.7324 31.241V27.0158L38.989 27.2384V29.0224C38.3744 30.2745 37.4633 31.4088 36.5795 32.5518C37.5208 32.6171 37.5872 32.6171 38.5241 32.7037L39.0981 33.9586H42.9664ZM23.1441 33.0908C23.1162 31.9356 23.0668 31.1807 23.041 30.0443C23.3996 29.9478 23.7444 30.1725 24.0229 30.3787C23.978 31.8271 23.978 31.8134 23.9484 33.3281H23.1518L23.1441 33.0908ZM22.9901 26.461C22.7982 25.3278 22.7823 25.2412 22.6754 24.4107H21.9528V23.613C23.2039 23.6091 23.8952 23.6152 25.1473 23.6152L25.1484 24.4107H24.4028L24.0788 27.0871C23.7642 26.8039 23.3931 26.5905 22.9901 26.461ZM22.8607 23.0417C21.7922 21.8965 21.7138 20.1778 21.9194 18.6214L21.9205 18.6164C22.1184 19.1954 22.4851 19.6087 23.058 19.8774C22.9939 19.5742 22.7242 19.2951 22.6365 18.97C22.3881 18.344 22.4117 17.4482 22.8201 16.8966C23.1118 16.4646 23.5284 16.2876 23.9862 16.1412C23.8141 16.6604 23.7598 17.2837 23.9736 17.8083C24.2713 17.577 24.2872 17.5616 24.5185 17.338C24.6084 17.2557 24.6496 17.225 24.7241 17.1724C25.1479 18.0797 25.6314 19.3308 25.3518 20.391L25.1753 20.8494C25.1084 20.0999 24.9878 19.7425 24.4834 19.4678C24.4193 19.9048 24.6972 20.2145 24.7608 20.7841C24.9664 21.6635 24.8047 22.5308 24.2625 23.0423L22.8607 23.0417ZM36.0472 21.0495L34.9442 22.2578C34.6454 21.9765 34.6218 21.9447 34.3241 21.6333C34.8915 21.0396 34.9475 20.9755 35.6048 20.2759L36.0472 21.0495ZM37.4907 18.1099C37.7144 17.0622 37.8333 15.8556 38.9857 15.417C39.4205 15.2947 40.0114 15.3512 40.3799 15.6752C40.8733 16.0337 41.0136 16.6362 40.8941 17.1982C40.5525 18.4141 39.1957 18.6389 38.0959 18.9339L37.4907 18.1099ZM45.1187 35.054V37.5681L36.5258 37.5539V35.0578L45.1187 35.054Z" fill="black"/>
<path fill-rule="evenodd" clip-rule="evenodd" d="M24.3694 51.8353C24.0235 50.2477 25.9373 49.6764 26.3902 48.359C26.7476 46.1562 26.8545 43.835 28.3874 42.1202C28.5376 38.8796 29.5869 36.0184 31.8862 33.6649C31.7771 32.9396 31.4772 32.3036 31.2601 31.6249C30.9564 31.6123 30.7546 31.558 30.4822 31.3113C30.2837 31.0306 30.202 30.8229 30.1472 30.4786C29.349 31.4731 28.3556 32.5854 27.2641 33.2537C27.0623 33.3666 26.8063 33.1293 26.4439 32.7894C25.1035 31.7329 24.8782 29.3355 22.836 29.4424C21.9095 29.131 21.9528 28.0401 21.8015 27.2199C22.1469 26.9705 22.7039 26.982 23.1162 27.1426C24.3924 27.8224 25.24 29.2593 26.4439 30.2209C26.7679 30.478 27.0557 30.8157 27.3523 30.9369C28.1407 30.2582 28.7755 29.6749 29.3089 28.6217C29.6828 28.028 30.2985 27.7692 30.9799 27.7594L31.4646 27.1865L31.2064 25.7611C30.7171 25.1369 30.3 24.4593 29.963 23.7414C30.1362 22.9229 30.2448 21.9712 31.0748 21.5178C31.6142 21.1839 32.0572 21.9503 32.4996 21.4641C32.6446 21.4315 32.7952 21.4331 32.9395 21.4688C33.0837 21.5044 33.2177 21.5732 33.3308 21.6696C33.6679 22.2546 34.0665 22.8368 34.0868 23.5166C33.8823 24.1761 33.5676 24.7902 33.2567 25.4058C33.1849 25.5462 32.9963 25.5884 32.867 25.686C32.9421 25.9661 33.0095 26.2797 33.2019 26.4957C33.4514 26.55 33.6827 26.5911 33.9782 26.5385C34.2183 25.8159 34.9952 25.4919 35.6421 25.2984L37.0675 24.3691C36.8394 23.2891 37.5324 22.3396 37.1448 21.2612C36.3323 20.8818 36.0998 19.9592 35.9222 19.2421C36.0538 18.7882 36.2747 18.3145 36.5965 17.9346L36.6448 17.9899C37.4233 18.8945 38.1376 19.8243 38.3849 20.9476C38.5252 22.3823 38.6645 23.851 38.5691 25.3526C37.8026 26.1202 36.8739 26.5714 35.9984 27.1432L35.3526 28.386C35.2764 29.6694 34.8976 30.8261 34.7013 32.069C35.2539 33.5678 35.9091 35.5661 35.4272 36.9586C35.0577 37.7864 34.277 38.2387 33.7014 38.6976L32.2409 39.8637C33.7063 41.4766 33.3532 43.3055 33.4141 45.6453C33.3993 46.2083 34.4097 46.6804 33.8713 47.324C33.4196 48.0449 32.7173 48.6299 32.8346 49.5799C32.3872 50.331 31.3149 50.4938 30.8073 50.4872C30.7821 50.4892 30.7568 50.4858 30.7329 50.4774C30.7091 50.4689 30.6873 50.4556 30.669 50.4383C30.6506 50.4209 30.636 50.3999 30.6263 50.3767C30.6165 50.3534 30.6116 50.3283 30.6121 50.303C30.719 49.9143 31.0211 49.6134 31.1817 49.2455C31.7036 48.4462 31.4646 47.3443 32.112 46.6014C31.5786 44.8641 30.7738 43.2534 30.5556 41.3971L30.5386 41.2814C30.105 42.1323 30.3429 42.9694 30.5721 43.6399C29.1346 45.454 27.5776 47.194 27.5776 49.5799C26.962 50.6709 26.0876 51.6665 25.6325 52.8178C25.4785 53.0107 25.1929 52.8419 25.0185 52.7454C24.6084 52.4696 24.5103 52.2081 24.3694 51.8353ZM40.1447 44.0121C41.5229 45.3684 43.9116 47.2593 44.1056 48.0597C44.3101 48.5997 44.2471 49.2477 44.2553 49.8749C43.8567 50.1868 43.5283 50.4598 43.0464 50.8337C43.0815 49.8804 43.2169 48.9083 42.7553 48.3404C41.7057 47.2921 40.6513 46.2486 39.5921 45.21C39.2149 44.8016 38.9134 44.2166 39.1595 43.6772C39.2857 43.4007 39.4377 43.1367 39.6134 42.8888C39.614 43.4157 39.8442 43.7155 40.1447 44.0121Z" fill="black"/>
<path fill-rule="evenodd" clip-rule="evenodd" d="M42.3765 50.2126C42.1133 50.5032 42.0168 50.6128 41.7082 50.9143L41.0788 50.1589V48.0597C40.1945 48.4928 40.4083 49.7472 40.4083 50.837C39.8848 50.4094 39.6211 50.166 39.1151 49.6934C38.8322 48.438 39.5871 47.7248 40.1529 46.8438L42.377 48.9698L42.3765 50.2126ZM38.6567 56.6812C38.842 56.2859 38.9073 56.1461 38.9287 55.7398C37.1266 55.7398 35.9211 55.7398 34.0149 55.7409C34.0264 56.4224 34.4146 57.0896 35.0302 57.5353C35.7089 58.0314 36.8454 58.1394 37.5992 57.7179C38.0312 57.5134 38.4199 57.0896 38.6567 56.6812Z" fill="black"/>
<path fill-rule="evenodd" clip-rule="evenodd" d="M33.1895 67.3993C33.167 66.0375 34.5014 65.3456 35.3407 64.4443C35.5677 64.2245 35.651 63.7936 35.4893 63.4351C35.3884 63.2092 35.2431 63.1001 35.06 63.0551C34.7656 62.9872 34.5162 63.0305 34.3298 63.1938C34.0694 63.4362 33.9959 63.7508 34.0096 64.0913L33.0782 64.1478C32.9981 63.6313 33.1242 63.1302 33.44 62.7394C33.8736 62.2728 34.5277 62.1418 35.1642 62.1851C35.6773 62.269 36.2672 62.5771 36.4772 63.1083C36.748 63.6856 36.6559 64.4246 36.2288 64.912C35.6784 65.4975 34.958 65.816 34.5019 66.4766L36.8588 66.3407C36.8779 66.6323 36.8938 66.9141 36.9092 67.18L33.1895 67.3993ZM24.8257 61.5069L24.8103 61.5519L23.2748 66.2606L22.294 65.9388L23.3493 62.7152L23.363 62.6593C22.9749 62.5234 22.5034 62.3885 22.1213 62.2536L22.3219 61.6446C22.8175 61.7728 23.3268 61.8578 23.7599 61.4993C23.9173 61.377 23.9441 61.3436 24.0286 61.2482L24.8257 61.5069ZM43.4803 64.116C43.3569 63.6522 43.0992 63.281 42.5828 63.1319L42.2829 63.0661C42.5894 62.849 42.8717 62.4132 42.7703 61.9877C42.6996 61.5015 42.3476 61.1923 41.9085 61.0245C41.5231 60.9077 41.0713 60.9258 40.6437 61.0399C40.2112 61.1391 39.8044 61.3315 39.516 61.6144C39.2046 61.9686 39.0374 62.4049 39.2013 62.8665C39.3071 63.292 39.7622 63.5469 40.1328 63.5979L39.8981 63.7931C39.5083 64.1658 39.4557 64.6143 39.5621 65.0825C39.6788 65.6033 40.0966 66.0106 40.6048 66.1598C40.9902 66.2606 41.4518 66.2535 41.9024 66.146C42.3487 66.0342 42.7643 65.8248 43.0576 65.5562C43.4408 65.1845 43.6206 64.6346 43.4803 64.116ZM40.2402 62.7733C40.1213 62.5672 40.1191 62.2246 40.3323 62.0184C40.4502 61.8902 40.63 61.7975 40.8197 61.7542C41.0072 61.7049 41.2095 61.7016 41.3756 61.7624C41.6552 61.8452 41.8147 62.1517 41.8071 62.3868C41.8053 62.4698 41.7864 62.5514 41.7516 62.6267C41.7168 62.702 41.6668 62.7693 41.6048 62.8243C41.4694 62.9366 41.3087 63.0141 41.1366 63.0502C40.9622 63.0979 40.7802 63.1045 40.6245 63.0667C40.4672 63.0211 40.3274 62.9323 40.2402 62.7733ZM42.3005 65.0419C42.1733 65.1877 41.9501 65.3007 41.7095 65.3582C41.4666 65.4185 41.2172 65.4251 41.0379 65.3528C40.9258 65.3128 40.8248 65.2469 40.7429 65.1605C40.6611 65.0741 40.6008 64.9696 40.567 64.8555C40.4749 64.5359 40.567 64.1938 40.8444 63.9992C40.9622 63.9159 41.1344 63.8386 41.3186 63.7887C41.4891 63.747 41.6655 63.7353 41.8399 63.7541C42.176 63.7963 42.4172 64.0551 42.4836 64.3813C42.5296 64.6011 42.4732 64.8478 42.3005 65.0419ZM30.7553 65.8867C30.7745 65.4087 30.6402 64.9739 30.1912 64.6784L29.9248 64.5282C30.2795 64.4109 30.6808 64.0787 30.7087 63.6428C30.7844 63.1566 30.5421 62.7585 30.1742 62.4658C29.8403 62.2394 29.4056 62.1248 28.961 62.1045C28.5213 62.0705 28.0728 62.1341 27.7143 62.3167C27.3119 62.5623 27.023 62.9296 27.0422 63.4197C27.0186 63.8583 27.3733 64.2344 27.7143 64.3939L27.4314 64.5123C26.9451 64.7503 26.7626 65.1636 26.7264 65.6422C26.6814 66.1757 26.9605 66.6871 27.4013 66.9826C27.7357 67.1926 28.183 67.3247 28.643 67.3532C29.103 67.3812 29.5635 67.3028 29.922 67.1334C30.3957 66.896 30.7323 66.4213 30.7553 65.8867ZM28.0613 63.6385C28.0098 63.4093 28.1118 63.0765 28.3722 62.9455C28.524 62.8589 28.723 62.8232 28.9188 62.8375C29.1112 62.849 29.3058 62.9071 29.4445 63.0107C29.6885 63.1714 29.7488 63.5118 29.6709 63.7344C29.6145 63.9104 29.4922 64.02 29.3469 64.0929C29.1855 64.1593 29.0103 64.1853 28.8365 64.1686C28.6619 64.1641 28.4909 64.1175 28.3382 64.0326C28.2039 63.9444 28.0948 63.8166 28.0613 63.6385ZM29.3502 66.4174C29.1874 66.5166 28.9401 66.5605 28.6923 66.5424C28.4456 66.5309 28.2039 66.4591 28.0575 66.3396C27.9614 66.2679 27.8837 66.1745 27.8307 66.067C27.7777 65.9595 27.751 65.841 27.7527 65.7212C27.7609 65.39 27.9506 65.0918 28.2735 64.9882C28.4411 64.9398 28.6156 64.9194 28.7899 64.9279C28.9818 64.9421 29.1693 64.9898 29.2976 65.0507C29.6051 65.1905 29.7592 65.5096 29.723 65.8434C29.7095 65.9614 29.6688 66.0747 29.6041 66.1743C29.5395 66.2739 29.4525 66.3571 29.3502 66.4174ZM52.9246 18.112L48.3408 20.0872L47.9297 19.1328L52.5101 17.1569L52.9246 18.112ZM35.6554 10.189L34.4778 5.05371L35.5616 5.1639C35.7809 6.43415 36.0052 7.87599 36.2617 8.94723C36.7299 7.94945 37.237 6.58217 37.7074 5.38265L38.7759 5.48955L36.6066 10.2849L35.6554 10.189ZM16.1588 13.1308L15.0464 15.1219L14.1084 14.5978L15.3836 12.3106L14.6637 11.9071L12.8754 15.1066L17.2333 17.5396L19.0183 14.339L18.2974 13.9366L17.02 16.2271L15.8002 15.5462L16.9181 13.5485L16.1588 13.1308ZM13.5168 34.3318C13.2817 33.7957 12.7049 33.5824 12.1085 33.6131C11.603 33.6696 11.2225 34.0128 11.0109 34.5319C10.9325 34.2271 10.6496 33.8444 10.1727 33.7902C9.66993 33.7282 9.19188 33.8636 8.95066 34.2874C8.62282 34.7101 8.76536 36.5637 8.72917 37.6333L13.6857 37.6294L13.6873 37.2665C13.6605 35.2973 13.774 35.0604 13.5168 34.3318ZM10.705 36.5927H9.48024C9.51588 35.4486 9.32564 34.8384 10.029 34.76C10.4429 34.7298 10.557 34.8225 10.6496 35.0719C10.7291 35.3307 10.705 35.5993 10.705 36.5927ZM12.8562 36.59L11.467 36.5927H11.4555C11.4796 35.4809 11.3064 34.8318 11.967 34.703C12.1967 34.6416 12.4851 34.6619 12.6523 34.8384C12.9346 35.1081 12.8475 35.5631 12.8562 36.59ZM52.964 20.8865L53.7579 20.6826L54.7622 24.5832L53.9673 24.7872L53.5972 23.3431L49.5902 24.3766L49.3342 23.3689L53.3368 22.3371L52.964 20.8865ZM27.7719 10.4779C27.2182 10.57 26.6475 10.5163 26.1858 10.2361C25.7911 10.0037 25.6486 9.70817 25.5751 9.34305L25.0022 5.77902L26.0175 5.61619L26.5932 9.18022C26.6502 9.47352 26.9095 9.65225 27.1792 9.70597C27.3273 9.7449 27.4928 9.74216 27.6562 9.71091L27.7719 10.4779ZM27.785 10.4751C28.3404 10.3902 28.8645 10.1605 29.2143 9.74819C29.5174 9.40554 29.5607 9.08099 29.5174 8.71039L28.944 5.14526L27.9276 5.30864L28.4983 8.87267C28.5367 9.1424 28.3464 9.42035 28.1063 9.55631C27.9697 9.64068 27.8159 9.69387 27.6562 9.71091L27.785 10.4751ZM55.2682 27.9548L50.0858 26.9154L50.2273 27.9269L51.355 28.1336L51.6022 29.9191L50.5798 30.4268L50.718 31.4372L55.4174 29.0179L55.2682 27.9548ZM52.3873 29.5272L52.2141 28.2953L54.3648 28.6209H54.3746L54.3702 28.622H54.3779H54.3648L52.3873 29.5272ZM54.5166 36.5275L54.6098 36.5105L54.7277 36.4809L54.8072 36.454C55.135 36.2742 55.2162 35.8362 55.1959 35.4787C55.1844 35.1191 55.0703 34.7512 54.7354 34.6218C54.561 34.5725 54.3368 34.5571 54.2206 34.7397C53.6586 35.5714 54.0484 37.3383 52.5962 37.6475C51.9657 37.7539 51.4076 37.4792 51.0798 36.9726C50.6302 36.1695 50.5935 34.9124 51.1077 34.1334C51.4191 33.7288 51.8413 33.4788 52.3456 33.4739L52.4076 34.4305C52.0951 34.4716 51.7875 34.6312 51.6461 34.9354C51.435 35.4354 51.4855 36.2325 51.855 36.5253C51.9887 36.6739 52.2985 36.658 52.4674 36.5675C53.0435 36.1525 52.9257 35.1213 53.2146 34.43C53.3144 34.1378 53.5841 33.8373 53.8582 33.6893C54.3681 33.4706 55.0243 33.549 55.4355 33.9568C56.0994 34.5813 56.1284 35.8088 55.822 36.556C55.6487 37.0724 55.0873 37.4518 54.5062 37.4863L54.4454 36.5297L54.5166 36.5275ZM14.3617 29.0025C14.2767 29.5579 14.0503 30.0836 13.6407 30.4345C13.2992 30.7387 12.9725 30.7826 12.6035 30.7404L9.03508 30.1812L9.19462 29.1631L12.7597 29.7212C13.058 29.7569 13.3074 29.5683 13.4439 29.3292C13.5273 29.1966 13.5777 29.0398 13.5969 28.877L14.3617 29.0025ZM14.3644 28.991C14.4543 28.4367 14.3979 27.8649 14.115 27.405C13.8847 27.0113 13.587 26.8688 13.2219 26.797L9.65623 26.2378L9.49559 27.252L13.0635 27.8161C13.3283 27.8611 13.5355 28.1314 13.5881 28.3984C13.6292 28.5497 13.6281 28.7141 13.5974 28.8764L14.3644 28.991ZM19.896 7.66931L18.9821 8.22685L20.0786 13.395L20.9497 12.8671L20.6953 11.7487L22.2326 10.8117L23.1092 11.5557L23.9792 11.0239L19.896 7.66931ZM20.5029 10.8967L19.9503 8.79263L19.9465 8.78385L19.9503 8.78714L19.9492 8.78111L19.9541 8.78988L21.5659 10.2487L20.5029 10.8967ZM44.1113 9.29261L42.0083 8.41106L42.4238 7.41877L44.8393 8.42751L45.1595 7.66657L41.7769 6.25269L39.8504 10.8556L43.233 12.2711L43.5521 11.5075L41.1322 10.496L41.6722 9.20654L43.7834 10.0925L44.1113 9.29261ZM13.7372 20.3498C13.7361 20.0066 13.7153 19.7199 13.4324 19.4474C13.1561 19.1629 12.7203 19.0335 12.2948 19.0642C11.183 19.2353 11.0367 20.5105 10.421 22.5268L15.1999 23.9506L15.497 22.9545L13.6089 22.3931L13.5333 22.3684C13.661 21.9095 13.8452 21.3273 13.9379 21.2018C14.2794 20.4112 15.5475 21.1875 16.0486 21.1124L16.3413 20.1229C15.4861 20.1711 14.3436 19.4085 13.7372 20.3498ZM12.7444 22.1338L11.4922 21.7637C11.7658 20.9101 11.8859 20.0505 12.4873 20.1048C12.7285 20.1442 12.8946 20.2089 13.0344 20.3811C13.269 20.6722 12.9681 21.3098 12.7444 22.1338ZM48.604 10.4176L44.6419 13.4421L45.2713 14.2689L46.8376 13.0759L46.9039 13.0255C47.195 13.3999 47.5591 13.8922 47.6084 14.0386C48.0475 14.7826 46.6693 15.35 46.4401 15.7995L47.0657 16.618C47.5284 15.8993 48.8205 15.4229 48.4137 14.3818C48.6933 14.5808 48.9362 14.7327 49.326 14.6636C49.7158 14.6093 50.0776 14.3358 50.3024 13.9695C50.8183 12.9701 49.8759 12.1012 48.604 10.4176ZM49.3507 13.514C49.1774 13.685 49.0272 13.7815 48.8024 13.7925C48.4286 13.8106 48.0925 13.1922 47.5591 12.525L48.5925 11.7333C49.1232 12.4548 49.7454 13.06 49.3507 13.514Z" fill="white"/>
</g>
</svg>
