<svg width="220" height="40" viewBox="0 0 220 40" fill="none" xmlns="http://www.w3.org/2000/svg">
<g opacity="0.6">
<path d="M118.258 9.9875V17.0769H118.325C119.501 15.5313 121.164 14.7754 123.348 14.7754C124.323 14.7754 125.23 14.9266 126.103 15.2457C126.96 15.5649 127.733 16.0353 128.405 16.6737C129.077 17.3121 129.598 18.1017 129.984 19.0592C130.37 20.0168 130.555 21.1256 130.555 22.3687C130.555 23.7799 130.303 25.0902 129.782 26.2998C129.262 27.5094 128.455 28.4837 127.363 29.2061C126.271 29.9285 124.911 30.2981 123.281 30.2981C120.929 30.2981 119.266 29.5421 118.258 28.047H118.191V29.8949H113.722V9.9875H118.258ZM101.139 14.3554C109.808 14.3554 109.069 23.6623 109.069 23.6623H97.1915C97.6787 25.5102 99.2746 26.7366 101.459 26.7366C104.113 26.7366 105.541 25.1406 105.541 25.1406L108.061 27.711C106.767 29.0045 105.02 30.1805 101.425 30.1805C95.8643 30.1805 92.9076 26.5014 92.9076 22.6039C92.9076 18.7064 95.1251 14.3554 101.139 14.3554ZM209.127 14.3386C212.856 14.3386 215.225 15.7665 215.225 15.7665L213.696 19.0424C208.723 16.4721 206.489 18.2865 206.489 19.1936C206.489 20.1008 207.379 20.168 210.84 20.8064C214.301 21.4448 215.914 22.8895 215.914 25.2246C215.914 27.5598 213.914 30.1301 209.026 30.1301C204.137 30.1301 201.903 28.5677 201.903 28.5677L203.381 25.3086C207.211 27.7278 211.562 26.955 211.562 25.5102C211.562 24.4183 210.118 24.1999 208.555 24.0151L207.883 23.9311C207.581 23.8975 207.295 23.8639 207.01 23.8135C205.027 23.4943 202.088 22.4359 202.088 19.3952C202.088 16.3545 205.397 14.3386 209.127 14.3386ZM187.27 8.94593V20.9744L193.755 14.7418H199.047L192.613 20.9072L199.668 30.0965H194.41L189.589 23.8135L187.254 26.0478V30.0965H182.919V8.94593H187.27ZM171.731 14.2378C174.805 14.2378 177.493 15.7665 178.988 18.0681L175.326 20.2184C174.637 18.908 173.293 18.0345 171.731 18.0345C169.48 18.0345 167.649 19.8992 167.649 22.1839C167.649 24.4855 169.48 26.3334 171.731 26.3334C173.209 26.3334 174.503 25.527 175.225 24.3175L178.904 26.4174C177.392 28.6349 174.755 30.1133 171.731 30.1133C167.044 30.1133 163.247 26.5518 163.247 22.1671C163.247 17.7993 167.044 14.2378 171.731 14.2378ZM151.588 14.2378C156.275 14.2378 160.072 17.7993 160.072 22.1839C160.072 26.5686 156.275 30.1301 151.588 30.1301C146.901 30.1301 143.104 26.5686 143.104 22.1839C143.088 17.7993 146.901 14.2378 151.588 14.2378ZM74.529 14.6914V29.9789H69.8251V14.6914H74.529ZM65.5916 10.0547V13.885H55.0584V18.9584H64.3653V22.7383H55.0584V29.9789H50.3545V10.0547H65.5916ZM84.5751 16.5897C84.5751 16.5897 86.2382 13.9858 89.6821 14.389V18.656C89.6821 18.656 85.9358 17.6985 84.5751 21.5624V29.9789H80.0896V14.6914H84.3735L84.5751 16.4889V16.5897ZM138.602 8.87874V29.8781H133.865V8.87874H138.602ZM121.971 18.1185C119.367 18.1185 118.073 19.6976 118.073 22.8727C118.073 24.0655 118.409 25.0735 119.081 25.8966C119.753 26.703 120.761 27.123 122.105 27.123C123.012 27.123 123.735 26.8878 124.306 26.4174C124.86 25.947 125.263 25.3758 125.499 24.6871C125.734 24.0151 125.851 23.3263 125.851 22.6543C125.851 21.3608 125.549 20.2688 124.927 19.412C124.306 18.5552 123.315 18.1185 121.971 18.1185ZM151.588 18.0345C149.337 18.0345 147.506 19.8992 147.506 22.1839C147.506 24.4855 149.337 26.3334 151.588 26.3334C153.839 26.3334 155.671 24.4687 155.671 22.1839C155.654 19.8824 153.839 18.0345 151.588 18.0345ZM101.207 17.6817C98.905 17.6817 97.6451 19.0928 97.2083 20.9408H104.902C104.869 20.4536 104.096 17.6817 101.207 17.6817ZM72.177 7.48438C73.7058 7.48438 74.949 8.62675 74.949 10.0211C74.949 11.4155 73.7058 12.5578 72.177 12.5578C70.6483 12.5578 69.4051 11.4155 69.4051 10.0211C69.4051 8.60995 70.6483 7.48438 72.177 7.48438Z" fill="white"/>
<path d="M34.6173 3.90967C35.3228 3.90967 35.894 4.48085 35.894 5.18643V34.7199C35.894 35.4255 35.3228 35.9967 34.6173 35.9967H4.68057C3.97499 35.9967 3.40381 35.4255 3.40381 34.7199V5.20323C3.40381 4.49765 3.97499 3.92647 4.68057 3.92647H34.6173V3.90967ZM19.6489 12.8302L10.6108 27.093H28.6702L19.6489 12.8302Z" fill="white"/>
</g>
</svg>
