<svg width="170" height="52" viewBox="0 0 170 52" fill="none" xmlns="http://www.w3.org/2000/svg">
<g opacity="0.6" clip-path="url(#clip0_2049_408)">
<path d="M58.1255 25.6734C58.0765 24.4638 58.2674 23.2565 58.6874 22.1211C59.1073 20.9857 59.7479 19.9447 60.5723 19.0581C61.3966 18.1715 62.3883 17.457 63.4902 16.9556C64.5921 16.4543 65.7824 16.1762 66.9924 16.1372H67.3683C72.0448 16.1372 74.8048 18.888 75.6208 22.1065L72.7141 23.0785C72.453 21.8791 71.7694 20.8136 70.788 20.0764C69.8067 19.3391 68.593 18.9792 67.3683 19.0623C64.3424 19.0623 61.3073 21.2721 61.3073 25.7285C61.3073 30.1848 64.2691 32.3121 67.405 32.3121C68.6357 32.3458 69.8422 31.9656 70.8313 31.2325C71.8204 30.4994 72.535 29.4557 72.8608 28.2684L75.7125 29.1853C75.2203 30.9965 74.1254 32.5857 72.6085 33.6909C71.0915 34.7961 69.2432 35.3512 67.3683 35.2647C64.9598 35.3089 62.6322 34.3949 60.8973 32.7236C59.1624 31.0523 58.1621 28.7605 58.1163 26.352C58.1072 26.1319 58.1163 25.9027 58.1255 25.6734Z" fill="white"/>
<path d="M81.3699 34.8442H78.3623V16.0835H81.3699V23.4191C81.8065 22.9012 82.3556 22.4899 82.9754 22.2166C83.5951 21.9432 84.2692 21.8151 84.946 21.8419C88.0544 21.8419 89.5307 24.0701 89.5307 26.8484V34.8442H86.6332V27.3803C86.72 26.744 86.5533 26.0991 86.1691 25.5845C85.7849 25.07 85.2139 24.727 84.5792 24.6294C84.3993 24.611 84.2181 24.611 84.0382 24.6294C83.3427 24.6294 82.6756 24.9057 82.1838 25.3975C81.692 25.8893 81.4157 26.5564 81.4157 27.2519C81.4112 27.3282 81.4112 27.4048 81.4157 27.4811L81.3699 34.8442Z" fill="white"/>
<path d="M96.2797 27.6177L99.5074 27.1134C100.241 27.0217 100.424 26.6457 100.424 26.1964C100.424 25.1328 99.7091 24.28 98.0403 24.28C97.41 24.229 96.7851 24.4286 96.301 24.8354C95.8169 25.2423 95.5127 25.8235 95.4545 26.4532V26.5907L92.7036 25.9764C92.9329 23.794 94.9135 21.8501 98.0128 21.8501C101.901 21.8501 103.377 24.0508 103.377 26.6182V32.881C103.374 33.5596 103.426 34.2373 103.533 34.9074H100.782C100.683 34.3755 100.643 33.8343 100.663 33.2936C100.245 33.9362 99.6665 34.4581 98.9843 34.8072C98.3021 35.1563 97.5403 35.3205 96.7749 35.2834C95.7294 35.3697 94.6924 35.0378 93.8914 34.3605C93.0903 33.6832 92.5906 32.7158 92.5019 31.6706C92.5019 31.6064 92.5019 31.5422 92.5019 31.4872C92.4561 29.1673 94.1157 27.9203 96.2797 27.6177ZM100.443 29.6441V29.0665L97.1508 29.5616C96.7039 29.5758 96.2798 29.7621 95.9671 30.0817C95.6544 30.4012 95.4773 30.8292 95.4728 31.2763C95.4763 31.4978 95.5239 31.7165 95.6129 31.9194C95.7018 32.1223 95.8302 32.3055 95.9907 32.4583C96.1511 32.6111 96.3404 32.7304 96.5475 32.8093C96.7545 32.8881 96.9752 32.925 97.1967 32.9176H97.3342C97.7095 32.9569 98.0889 32.9216 98.4505 32.8136C98.8121 32.7056 99.1488 32.5272 99.4411 32.2885C99.7335 32.0499 99.9757 31.7557 100.154 31.4231C100.332 31.0904 100.443 30.7258 100.479 30.3502C100.492 30.1138 100.477 29.8768 100.433 29.6441H100.443Z" fill="white"/>
<path d="M108.493 15.8264C108.752 15.8228 109.008 15.8703 109.248 15.9661C109.489 16.062 109.707 16.2043 109.892 16.3849C110.077 16.5655 110.224 16.7809 110.326 17.0187C110.427 17.2564 110.481 17.5119 110.483 17.7704C110.483 18.1573 110.369 18.5356 110.154 18.8576C109.94 19.1797 109.635 19.4312 109.278 19.5805C108.921 19.7298 108.528 19.7702 108.148 19.6967C107.768 19.6232 107.419 19.439 107.143 19.1673C106.868 18.8956 106.679 18.5486 106.6 18.1698C106.521 17.791 106.556 17.3973 106.7 17.0383C106.844 16.6793 107.092 16.371 107.411 16.1521C107.73 15.9332 108.106 15.8135 108.493 15.8081V15.8264ZM107.026 34.8989V22.2267H110.034V34.8439L107.026 34.8989Z" fill="white"/>
<path d="M116.883 34.8433H113.885V22.2261H116.81V23.9041C117.191 23.2598 117.739 22.7299 118.396 22.3702C119.052 22.0104 119.793 21.8339 120.542 21.8593C123.623 21.8593 125.127 24.0875 125.127 26.8659V34.8433H122.128V27.3793C122.128 25.8297 121.422 24.5735 119.533 24.5735C119.184 24.5759 118.839 24.6471 118.517 24.7829C118.195 24.9188 117.903 25.1167 117.658 25.3653C117.413 25.6139 117.219 25.9084 117.088 26.232C116.956 26.5555 116.89 26.9018 116.892 27.251C116.892 27.3518 116.892 27.4527 116.892 27.5536L116.883 34.8433Z" fill="white"/>
<path d="M128.758 34.8442V16.0835H131.765V34.8442H128.758Z" fill="white"/>
<path d="M137.13 15.8257C137.517 15.8239 137.895 15.9371 138.218 16.151C138.541 16.3649 138.792 16.6699 138.941 17.0271C139.09 17.3844 139.13 17.7778 139.055 18.1576C138.98 18.5373 138.793 18.8861 138.52 19.1598C138.246 19.4335 137.897 19.6197 137.517 19.6948C137.138 19.7699 136.744 19.7304 136.387 19.5814C136.03 19.4325 135.725 19.1807 135.511 18.8581C135.297 18.5356 135.184 18.1567 135.186 17.7696C135.19 17.2555 135.397 16.7639 135.76 16.4004C136.124 16.0368 136.615 15.8305 137.13 15.8257ZM135.653 34.8982V22.226H138.633V34.8432L135.653 34.8982Z" fill="white"/>
<path d="M145.529 34.8431H142.521V22.2259H145.446V23.9039C145.828 23.2603 146.376 22.731 147.033 22.3713C147.689 22.0116 148.43 21.8347 149.178 21.8592C152.259 21.8592 153.763 24.0873 153.763 26.8657V34.8431H150.755V27.3792C150.842 26.7429 150.676 26.098 150.291 25.5834C149.907 25.0689 149.336 24.7259 148.701 24.6283C148.519 24.61 148.334 24.61 148.151 24.6283C147.451 24.6356 146.782 24.9189 146.289 25.4168C145.796 25.9147 145.52 26.587 145.52 27.2875C145.51 27.3943 145.51 27.5016 145.52 27.6084L145.529 34.8431Z" fill="white"/>
<path d="M164.023 27.5545L169.314 34.8901H165.646L161.979 29.691L160.429 31.3231V34.8442H157.449V16.0835H160.429V27.3253L165.271 22.227H169.259L164.023 27.5545Z" fill="white"/>
<path d="M22.5202 11.0029L35.5225 18.4668V33.468L22.5569 40.9778L9.56375 33.5322V18.5402L22.5202 11.0029ZM22.5202 -0.000488281L17.7521 2.75035L4.76812 10.2876L0 13.0385V39.0522L4.76812 41.8031L17.7704 49.267L22.5385 52.0179L27.3066 49.267L40.2631 41.7481L45.0312 38.9972V12.9468L40.2631 10.196L27.27 2.75035L22.5019 -0.000488281H22.5202Z" fill="white"/>
</g>
<defs>
<clipPath id="clip0_2049_408">
<rect width="169.314" height="52" fill="white"/>
</clipPath>
</defs>
</svg>
