<svg width="214" height="48" viewBox="0 0 214 48" fill="none" xmlns="http://www.w3.org/2000/svg">
<g opacity="0.48" clip-path="url(#clip0_2049_314)">
<path fill-rule="evenodd" clip-rule="evenodd" d="M19.2391 36.8343C17.9217 37.4335 15.8131 37.825 13.803 37.825C7.89882 37.825 4.6845 34.228 4.6845 29.464C4.6845 24.1052 8.38686 20.9189 13.8837 20.9189C16.0661 20.9189 17.9469 21.403 19.2145 21.9776L20.2216 18.4869C19.2282 17.9685 16.9377 17.3101 13.7009 17.3101C5.56796 17.3101 0 22.4206 0 29.6608C0 36.7359 5.00217 41.4882 13.1005 41.4882C16.3616 41.4882 18.9151 40.8346 20.0351 40.2746L19.2391 36.8343Z" fill="white"/>
<path fill-rule="evenodd" clip-rule="evenodd" d="M29.3575 41.4886C34.219 41.4886 38.8516 38.4317 38.8516 32.4337C38.8516 27.4707 35.1757 23.7944 29.6636 23.7944C23.9383 23.7944 20.0771 27.4494 20.0771 32.7945C20.0771 38.1079 24.1722 41.489 29.3232 41.489H29.3575V41.4886ZM29.3967 38.3084C26.6573 38.3084 24.6575 36.0519 24.6575 32.6708C24.6575 29.7384 26.1605 26.9729 29.4911 26.9729C32.7789 26.9729 34.202 29.8781 34.202 32.5961C34.202 36.2724 32.078 38.3084 29.4319 38.3084H29.3967Z" fill="white"/>
<path fill-rule="evenodd" clip-rule="evenodd" d="M40.3398 41.0721H44.7969V31.3183C44.7969 30.877 44.8561 30.3668 44.9949 30.0252C45.4814 28.7405 46.7715 27.3773 48.7288 27.3773C51.2972 27.3773 52.3625 29.286 52.3625 31.9506V41.0721H56.8196V31.3988C56.8196 25.59 53.2463 23.7939 50.264 23.7939C47.1168 23.7939 45.1558 25.6286 44.4273 26.9235H44.3189L44.1005 24.2091H40.201C40.2852 25.658 40.3398 27.3493 40.3398 29.3121V41.0721Z" fill="white"/>
<path fill-rule="evenodd" clip-rule="evenodd" d="M67.5161 41.4886C72.3776 41.4886 77.0102 38.4317 77.0102 32.4337C77.0102 27.4707 73.3349 23.7944 67.8234 23.7944C62.0972 23.7944 58.2363 27.4494 58.2363 32.7945C58.2363 38.1079 62.3308 41.489 67.4817 41.489H67.5161V41.4886ZM67.5558 38.3084C64.8162 38.3084 62.8161 36.0519 62.8161 32.6708C62.8161 29.7384 64.319 26.9729 67.6503 26.9729C70.9375 26.9729 72.3606 29.8781 72.3606 32.5961C72.3606 36.2724 70.2372 38.3084 67.5905 38.3084H67.5558Z" fill="white"/>
<path fill-rule="evenodd" clip-rule="evenodd" d="M92.5449 37.2488C91.6143 37.6247 90.4005 38.0031 88.6809 38.0031C85.5593 38.0031 82.9936 36.0589 82.9936 32.5971C82.9736 29.5103 85.1283 27.2001 88.6624 27.2001C90.4156 27.2001 91.5749 27.5572 92.3672 27.9529L93.1881 24.6563C92.0416 24.1716 90.2744 23.7944 88.5045 23.7944C82.0865 23.7944 78.4178 27.775 78.4178 32.8251C78.4178 37.9548 82.074 41.4886 87.7875 41.4886C90.1939 41.4886 92.1841 40.9772 93.1869 40.5123L92.5449 37.2488Z" fill="white"/>
<path fill-rule="evenodd" clip-rule="evenodd" d="M102.556 41.4886C107.417 41.4886 112.049 38.4317 112.049 32.4337C112.049 27.4707 108.374 23.7944 102.862 23.7944C97.136 23.7944 93.2754 27.4494 93.2754 32.7945C93.2754 38.1079 97.3704 41.489 102.521 41.489H102.556V41.4886ZM102.596 38.3084C99.8553 38.3084 97.8557 36.0519 97.8557 32.6708C97.8557 29.7384 99.3581 26.9729 102.689 26.9729C105.977 26.9729 107.4 29.8781 107.4 32.5961C107.4 36.2724 105.276 38.3084 102.63 38.3084H102.596Z" fill="white"/>
<path fill-rule="evenodd" clip-rule="evenodd" d="M131.605 41.072H136.062V31.1806C136.062 30.6941 136.091 30.2683 136.26 29.8863C136.761 28.6715 138.052 27.3926 139.955 27.3926C142.578 27.3926 143.628 29.3168 143.628 31.966V41.072H148.085V31.3847C148.085 25.5902 144.542 23.7941 141.608 23.7941C140.493 23.7941 139.394 24.0915 138.477 24.5913C137.512 25.0724 136.711 25.8204 136.13 26.6823H136.061V16.271H131.604V41.072H131.605Z" fill="white"/>
<path fill-rule="evenodd" clip-rule="evenodd" d="M155.182 41.0718V24.2091H150.724V41.0718H155.182ZM152.955 21.5961C154.59 21.5961 155.578 20.4745 155.578 19.141C155.558 17.7923 154.575 16.7051 152.971 16.7051C151.366 16.7051 150.348 17.8078 150.348 19.141C150.348 20.4742 151.336 21.5961 152.921 21.5961H152.955Z" fill="white"/>
<path fill-rule="evenodd" clip-rule="evenodd" d="M158.242 41.072H162.699V16.271H158.242V41.072Z" fill="white"/>
<path fill-rule="evenodd" clip-rule="evenodd" d="M166.105 41.072H170.562V16.271H166.105V41.072Z" fill="white"/>
<path fill-rule="evenodd" clip-rule="evenodd" d="M178.079 41.0718V24.2091H173.622V41.0718H178.079ZM175.853 21.5961C177.488 21.5961 178.476 20.4745 178.476 19.141C178.457 17.7923 177.474 16.7051 175.869 16.7051C174.264 16.7051 173.246 17.8078 173.246 19.141C173.246 20.4742 174.234 21.5961 175.819 21.5961H175.853Z" fill="white"/>
<path fill-rule="evenodd" clip-rule="evenodd" d="M181.485 48.0005H185.941V39.0794H186.011C187.002 40.6122 189.039 41.489 191.38 41.489C195.584 41.489 199.816 38.4496 199.816 32.3353C199.816 27.0033 196.108 23.7944 192.072 23.7944C189.12 23.7944 186.933 24.9682 185.549 26.9832H185.479L185.262 24.2096H181.347C181.431 25.8526 181.485 27.7382 181.485 29.8939V48.0005ZM185.941 31.7385C185.941 31.4075 186.016 31.0491 186.097 30.7172C186.618 28.5913 188.495 27.2301 190.523 27.2301C193.614 27.2301 195.281 29.7126 195.281 32.581C195.281 36 193.377 38.1116 190.393 38.1116C188.183 38.1116 186.473 36.5612 186.036 34.797C185.972 34.4399 185.941 34.0888 185.941 33.7174V31.7385H185.941Z" fill="white"/>
<path fill-rule="evenodd" clip-rule="evenodd" d="M200.576 40.2369C201.98 40.9643 203.943 41.4885 206.223 41.4885C211.102 41.4885 213.496 39.1148 213.496 36.1559C213.477 33.5435 211.987 32.011 208.643 31.011C206.341 30.3182 205.395 29.8068 205.395 28.6859C205.395 27.6044 206.312 26.8898 207.907 26.8898C209.596 26.8898 211.163 27.5428 211.895 27.9433L212.769 24.863C211.72 24.2835 209.907 23.7939 207.885 23.7939C203.651 23.7939 201.071 26.1637 201.071 29.1496C201.051 31.2424 202.58 33.0964 206.146 34.1059C208.389 34.7595 209.153 35.3007 209.153 36.4714C209.153 37.5392 208.305 38.3528 206.243 38.3528C204.581 38.3528 202.519 37.6504 201.474 37.0074L200.576 40.2369Z" fill="white"/>
<path fill-rule="evenodd" clip-rule="evenodd" d="M113.609 41.0628H118.026V31.5675C118.68 31.7217 119.527 31.7752 120.463 31.7752C123.842 31.7752 126.608 30.9494 128.439 29.2269C129.812 27.9705 130.515 26.0821 130.515 23.9198C130.515 21.6594 129.526 19.8199 128.093 18.6917C126.569 17.455 124.2 16.7319 120.864 16.7319C117.593 16.7319 115.275 16.9597 113.608 17.2212V41.0628H113.609ZM118.026 20.3171C118.521 20.2174 119.499 20.1036 120.889 20.1036C123.995 20.1036 126.097 21.3314 126.097 24.0291C126.097 26.7837 123.953 28.3443 120.514 28.3443C119.474 28.3443 118.66 28.2803 118.026 28.1059V20.3171Z" fill="white"/>
<path fill-rule="evenodd" clip-rule="evenodd" d="M133.347 0.000488281C127.315 2.09538 125.732 4.17084 122.476 6.78566C113.249 9.21461 105.161 5.31881 98.1217 2.10206C101.449 4.5049 104.739 9.61215 106.129 16.8507C111.448 15.2545 117.854 10.9499 123.494 6.929C126.655 5.52744 130.123 3.45867 133.347 0.000488281Z" fill="white"/>
</g>
<defs>
<clipPath id="clip0_2049_314">
<rect width="213.496" height="48" fill="white"/>
</clipPath>
</defs>
</svg>
