<svg width="68" height="68" viewBox="0 0 68 68" fill="none" xmlns="http://www.w3.org/2000/svg">
<g clip-path="url(#clip0_2049_331)">
<path fill-rule="evenodd" clip-rule="evenodd" d="M22.6323 45.1509C25.8183 50.7988 31.9005 56.4461 42.1819 56.7354C49.278 56.7354 55.0702 53.8394 59.415 48.6264C60.1393 47.6129 61.0078 46.3094 61.4421 45.2959H62.0217C57.3294 56.529 46.6339 64.2721 34.5957 64.4115H33.9279C28.7146 64.2661 23.9358 63.2526 19.3018 60.6459C19.3018 60.6459 10.1789 56.4465 5.83447 45.2959H22.7773L22.6323 45.1509Z" fill="white" fill-opacity="0.48"/>
<path d="M22.6323 45.1509C25.8183 50.7988 31.9005 56.4461 42.1819 56.7354C49.278 56.7354 55.0702 53.8394 59.415 48.6264C60.1393 47.6129 61.0078 46.3094 61.4421 45.2959H62.0217C57.3294 56.529 46.6339 64.2721 34.5957 64.4115M33.9279 64.4111C28.7146 64.2658 23.9358 63.2523 19.3018 60.6456C19.3018 60.6456 10.1789 56.4461 5.83447 45.2955H22.7773" stroke="white" stroke-opacity="0.48" stroke-width="0.000564444" stroke-miterlimit="2.6131" stroke-linecap="square"/>
<path fill-rule="evenodd" clip-rule="evenodd" d="M31.1763 27.3398C32.3348 29.0773 33.2037 30.2361 33.9276 31.3947C34.7965 30.0915 35.3754 29.2226 36.6793 27.3398C38.7067 27.3398 41.1687 27.3398 43.1958 27.3398C41.3134 29.8015 39.4306 32.4082 38.1274 34.0013C39.8652 36.318 41.458 38.4904 43.1958 40.6628H36.5343C35.6654 39.3593 34.9415 38.2008 33.9276 36.7527C33.2037 37.9108 32.0452 39.504 31.1763 40.6628C29.0042 40.6628 26.5422 40.6628 24.6598 40.6628C26.2526 38.4904 27.9904 36.173 29.7281 34.0013C28.1354 31.9739 26.1079 29.5119 24.6598 27.3398C26.5422 27.3398 28.28 27.3398 31.1763 27.3398Z" fill="white" fill-opacity="0.48"/>
<path d="M31.1763 27.3398C32.3348 29.0773 33.2037 30.2361 33.9276 31.3947C34.7965 30.0915 35.3754 29.2226 36.6793 27.3398C38.7067 27.3398 41.1687 27.3398 43.1958 27.3398C41.3134 29.8015 39.4306 32.4082 38.1274 34.0013C39.8652 36.318 41.458 38.4904 43.1958 40.6628H36.5343C35.6654 39.3593 34.9415 38.2008 33.9276 36.7527C33.2037 37.9108 32.0452 39.504 31.1763 40.6628C29.0042 40.6628 26.5422 40.6628 24.6598 40.6628C26.2526 38.4904 27.9904 36.173 29.7281 34.0013C28.1354 31.9739 26.1079 29.5119 24.6598 27.3398C26.5422 27.3398 28.28 27.3398 31.1763 27.3398Z" stroke="white" stroke-opacity="0.48" stroke-width="0.000564444" stroke-miterlimit="2.6131" stroke-linecap="square"/>
<path fill-rule="evenodd" clip-rule="evenodd" d="M54.056 31.2497C55.0699 29.9462 56.0838 28.643 57.0973 27.3398C59.1247 27.3398 61.4414 27.3398 63.3242 27.3398C60.7172 30.6704 57.8212 34.291 56.8073 35.5938V40.6628H51.1597V35.5938C50.0015 34.0013 45.9464 28.9326 44.7878 27.3398H51.0144L54.056 31.2497Z" fill="white" fill-opacity="0.48"/>
<path d="M54.056 31.2497C55.0699 29.9462 56.0838 28.643 57.0973 27.3398C59.1247 27.3398 61.4414 27.3398 63.3242 27.3398C60.7172 30.6704 57.8212 34.291 56.8073 35.5938V40.6628H51.1597V35.5938C50.0015 34.0013 45.9464 28.9326 44.7878 27.3398H51.0144L54.056 31.2497Z" stroke="white" stroke-opacity="0.48" stroke-width="0.000564444" stroke-miterlimit="2.6131" stroke-linecap="square"/>
<path fill-rule="evenodd" clip-rule="evenodd" d="M45.0782 22.8504C42.0372 17.3477 35.9553 11.6998 25.6736 11.2655C18.4332 11.2655 12.7856 14.3064 8.44079 19.3751C7.71654 20.389 6.848 21.6922 6.26874 22.7057H5.83447C10.5384 11.4444 21.277 3.69207 33.3525 3.59047C33.5441 3.5887 33.7357 3.588 33.9276 3.59047C39.1409 3.87974 43.9196 4.89363 48.5537 7.35531C48.5537 7.35531 57.5319 11.5548 62.0214 22.7054H44.9335L45.0782 22.8504Z" fill="white" fill-opacity="0.48"/>
<path d="M45.0782 22.8504C42.0372 17.3477 35.9553 11.6998 25.6736 11.2655C18.4332 11.2655 12.7856 14.3064 8.44079 19.3751C7.71654 20.389 6.848 21.6922 6.26874 22.7057H5.83447C10.5384 11.4444 21.277 3.69207 33.3525 3.59047C33.5441 3.5887 33.7357 3.588 33.9276 3.59047C39.1409 3.87974 43.9196 4.89363 48.5537 7.35531C48.5537 7.35531 57.5319 11.5548 62.0214 22.7054H44.9335" stroke="white" stroke-opacity="0.48" stroke-width="0.000564444" stroke-miterlimit="2.6131" stroke-linecap="square"/>
<path fill-rule="evenodd" clip-rule="evenodd" d="M19.1568 40.6625H8.29586C5.83418 40.6625 4.67566 38.924 4.67566 37.6212C4.67566 34.001 4.67566 32.6975 4.67566 30.2358C5.10993 28.0634 6.9927 27.3395 8.29586 27.3395H19.1572C22.6324 27.1945 22.6324 30.2358 22.6324 30.2358C22.6324 31.9736 22.6324 34.4353 22.6324 37.6212C22.6324 37.6212 22.922 40.6625 19.1568 40.6625ZM10.3233 34.0006C10.3233 34.5796 10.3233 34.2903 10.3233 35.3038C10.3233 35.3038 10.3233 36.752 11.7714 36.752C12.4953 36.752 13.2196 36.752 13.7985 36.752C14.6674 36.752 15.102 36.752 15.8259 36.752C16.8398 36.752 17.1294 36.3173 17.1294 35.3038C17.1294 34.4349 17.2741 32.9871 17.2741 32.6971C17.1294 31.8282 16.5502 31.2493 15.8263 31.2493C13.2199 31.2493 15.8263 31.2493 13.7988 31.2493C13.2199 31.2493 12.4957 31.2493 11.7718 31.2493C10.3236 31.1043 10.3236 32.5525 10.3236 32.5525C10.3233 33.566 10.3233 33.711 10.3233 34.0006Z" fill="white" fill-opacity="0.48"/>
<path fill-rule="evenodd" clip-rule="evenodd" d="M19.1568 40.6625H8.29586C5.83418 40.6625 4.67566 38.924 4.67566 37.6212C4.67566 34.001 4.67566 32.6975 4.67566 30.2358C5.10993 28.0634 6.9927 27.3395 8.29586 27.3395H19.1572C22.6324 27.1945 22.6324 30.2358 22.6324 30.2358C22.6324 31.9736 22.6324 34.4353 22.6324 37.6212C22.6324 37.6212 22.922 40.6625 19.1568 40.6625ZM10.3233 34.0006C10.3233 34.5796 10.3233 34.2903 10.3233 35.3038C10.3233 35.3038 10.3233 36.752 11.7714 36.752C12.4953 36.752 13.2196 36.752 13.7985 36.752C14.6674 36.752 15.102 36.752 15.8259 36.752C16.8398 36.752 17.1294 36.3173 17.1294 35.3038C17.1294 34.4349 17.2741 32.9871 17.2741 32.6971C17.2741 31.8282 16.5502 31.2493 15.8263 31.2493C13.2199 31.2493 15.8263 31.2493 13.7988 31.2493C13.2199 31.2493 12.4957 31.2493 11.7718 31.2493C10.3236 31.1043 10.3236 32.5525 10.3236 32.5525C10.3233 33.566 10.3233 33.711 10.3233 34.0006Z" fill="white" fill-opacity="0.48"/>
<path d="M19.1568 40.6625H8.29586C5.83418 40.6625 4.67566 38.924 4.67566 37.6212C4.67566 34.001 4.67566 32.6975 4.67566 30.2358C5.10993 28.0634 6.9927 27.3395 8.29586 27.3395H19.1572C22.6324 27.1945 22.6324 30.2358 22.6324 30.2358C22.6324 31.9736 22.6324 34.4353 22.6324 37.6212C22.6324 37.6212 22.922 40.6625 19.1568 40.6625ZM10.3233 34.0006C10.3233 34.5796 10.3233 34.2903 10.3233 35.3038C10.3233 35.3038 10.3233 36.752 11.7714 36.752C12.4953 36.752 13.2196 36.752 13.7985 36.752C14.6674 36.752 15.102 36.752 15.8259 36.752C16.8398 36.752 17.1294 36.3173 17.1294 35.3038C17.1294 34.4349 17.2741 32.9871 17.2741 32.6971C17.2741 31.8282 16.5502 31.2493 15.8263 31.2493C13.2199 31.2493 15.8263 31.2493 13.7988 31.2493C13.2199 31.2493 12.4957 31.2493 11.7718 31.2493C10.3236 31.1043 10.3236 32.5525 10.3236 32.5525C10.3233 33.566 10.3233 33.711 10.3233 34.0006Z" stroke="white" stroke-opacity="0.48" stroke-width="0.000564444" stroke-miterlimit="2.6131" stroke-linecap="square"/>
</g>
<defs>
<clipPath id="clip0_2049_331">
<rect width="68" height="68" fill="white"/>
</clipPath>
</defs>
</svg>
