<svg width="202" height="38" viewBox="0 0 202 38" fill="none" xmlns="http://www.w3.org/2000/svg">
<g clip-path="url(#clip0_2049_345)">
<path d="M78.8927 7.3486H84.4614V9.25102C85.0592 8.73049 86.9899 6.88206 90.5554 6.88206C94.751 6.88206 98.0845 9.97943 98.0845 14.843V27.4678H92.2024V16.4078C92.2024 13.6964 90.8801 12.0881 88.487 12.0881C86.1688 12.0881 84.774 13.6046 84.774 16.4078V27.4678H78.8927V7.3486ZM134.919 17.4078C134.919 11.6039 139.567 6.88206 145.654 6.88206C151.739 6.88206 156.385 11.6039 156.385 17.4078C156.385 23.2101 151.738 27.9263 145.654 27.9263C139.567 27.9263 134.919 23.2101 134.919 17.4078ZM140.726 17.4078C140.726 20.1869 142.802 22.4737 145.688 22.4737C148.58 22.4737 150.659 20.1869 150.659 17.4078C150.659 14.6271 148.58 12.3419 145.688 12.3419C142.803 12.3419 140.726 14.6271 140.726 17.4078ZM54.1379 17.4118C54.1379 11.6055 58.788 6.88367 64.8691 6.88367C70.9575 6.88367 75.606 11.6055 75.606 17.4118C75.606 23.2126 70.9575 27.9271 64.8691 27.9271C58.7872 27.9279 54.1379 23.2126 54.1379 17.4118ZM59.9443 17.4102C59.9443 20.1909 62.0207 22.4777 64.9102 22.4777C67.8013 22.4777 69.8778 20.1909 69.8778 17.4102C69.8778 14.6271 67.8013 12.3444 64.9102 12.3444C62.0207 12.3444 59.9443 14.6271 59.9443 17.4102ZM184.918 5.11985H190.88V0H184.918V5.11985ZM184.918 27.4678H190.88V7.3486H184.918V27.4678ZM195.478 27.4678H201.442V0H195.478V27.4678ZM165.487 27.4678H159.833V0H165.551V8.94563C165.835 8.73694 167.688 6.88206 171.735 6.88206C177.029 6.88206 181.447 11.4282 181.447 17.4118C181.447 23.3842 176.741 27.9303 171.667 27.9303C167.808 27.9303 165.967 26.235 165.551 25.9191L165.487 27.4678ZM175.404 17.3965C175.404 14.5675 173.259 12.3726 170.387 12.3726C167.531 12.3726 165.339 14.5473 165.339 17.4126C165.339 20.2417 167.501 22.4366 170.38 22.4366C173.231 22.4358 175.404 20.2336 175.404 17.3965ZM19.4593 27.4678H26.3559L32.5554 19.5004L36.4207 23.4156L27.5758 34.4901H34.4965L40.1603 27.1503L50.8206 38H59.1756L43.8539 22.5929L55.9203 7.3486H48.9955L40.0781 18.7986L36.2193 14.9196L46.1391 2.42697H39.2328L32.4579 11.1438L28.7788 7.3486H20.539L28.8384 15.7278L19.4593 27.4678ZM0 0V27.4678H18.0903V22.3423H6.15445V15.7793H17.5545V10.811H6.15445V5.11743H18.0903V0H0ZM102.796 0V27.4678H108.584V6.72816H108.846L113.826 27.4686H120.328L125.424 6.72816H125.688V27.4686H131.475V0H122.024L117.318 20.0467H117.109L112.52 0H102.796Z" fill="white" fill-opacity="0.48"/>
</g>
<defs>
<clipPath id="clip0_2049_345">
<rect width="201.442" height="38" fill="white"/>
</clipPath>
</defs>
</svg>
