<svg width="65" height="72" viewBox="0 0 65 72" fill="none" xmlns="http://www.w3.org/2000/svg">
<g clip-path="url(#clip0_2049_347)">
<path d="M9.31341 12.2804C8.82498 12.5188 7.83862 12.8124 6.37571 12.8124C2.32474 12.8124 0 10.0262 0 6.47134C0 2.23941 2.96225 0 6.64477 0C8.07244 0 8.82676 0.273219 9.31262 0.531391L8.8626 3.06223C8.3217 2.82267 7.74755 2.60449 6.75604 2.60449C5.00229 2.60449 3.14202 3.64748 3.14202 6.42461C3.14202 8.90893 4.62532 10.223 6.77069 10.223C7.62044 10.223 8.19717 10.0562 8.8628 9.75076L9.31341 12.2804Z" fill="white" fill-opacity="0.48"/>
<path d="M16.0399 3.13854C14.9486 3.13854 13.8925 3.63331 13.3548 4.42802H13.3217V0.0444336L10.5767 0.994761V12.4314H13.3217V7.08913C13.3217 6.31778 13.8232 5.48803 14.785 5.48803C15.814 5.48803 16.2103 6.29799 16.2103 7.47619V12.4316H18.9578V7.09725C18.9578 4.37417 17.7898 3.13854 16.0399 3.13854Z" fill="white" fill-opacity="0.48"/>
<path d="M23.0989 8.82351C23.1999 9.98192 24.1607 10.5975 25.6454 10.6107C26.5401 10.6176 27.5803 10.3575 28.2732 9.94925L28.6874 12.0857C27.6444 12.6096 26.453 12.8125 25.2401 12.8125C21.9726 12.8125 20.2212 10.8473 20.2212 7.83655C20.2212 4.92419 22.1044 3.04492 24.9265 3.04492C27.8349 3.04492 29.1386 5.18633 29.1386 7.86942C29.1386 8.15214 29.1038 8.61265 29.0725 8.82351H23.0989ZM26.3969 6.86999C26.3969 6.19724 26.0687 5.02081 24.7978 5.02081C23.6836 5.02081 23.1581 5.98005 23.0801 6.86999H26.3969Z" fill="white" fill-opacity="0.48"/>
<path d="M32.3652 12.4316L29.332 3.42725H32.3606L34.0084 9.79662H34.0639L35.7119 3.42725H38.7417L35.7087 12.4316H32.3652Z" fill="white" fill-opacity="0.48"/>
<path d="M39.5204 6.38808C39.5204 5.06336 39.4788 4.19916 39.4224 3.42662H42.0084L42.0868 5.10038H42.1563C42.6089 3.77567 43.4775 3.27239 44.3708 3.22171C44.7955 3.19696 45.0253 3.22705 45.2883 3.27793V5.91074C45.0366 5.86144 44.5373 5.80343 44.1863 5.8357C43.1298 5.93291 42.4905 6.70129 42.3112 7.58589C42.2751 7.76922 42.2565 7.97275 42.2565 8.21093V12.431H39.5214V6.38808H39.5204Z" fill="white" fill-opacity="0.48"/>
<path d="M54.935 7.92882C54.935 10.88 53.1569 12.8125 50.2757 12.8125C47.3938 12.8125 45.6145 10.88 45.6145 7.92882C45.6145 4.97726 47.3938 3.04492 50.2757 3.04492C53.1569 3.04492 54.935 4.97745 54.935 7.92882ZM52.089 7.92882C52.089 6.46353 51.5853 5.18811 50.2757 5.18811C48.9642 5.18811 48.4631 6.46333 48.4631 7.92882C48.4631 9.39549 48.9642 10.6689 50.2757 10.6689C51.5857 10.6689 52.089 9.39549 52.089 7.92882Z" fill="white" fill-opacity="0.48"/>
<path d="M56.1561 6.29743C56.1561 5.17367 56.1149 4.21423 56.0569 3.42665H58.643L58.7022 4.68643H58.7576C59.1158 4.10059 60.0635 3.13818 61.5423 3.13818C63.352 3.13818 64.5334 4.37381 64.5334 7.02443V12.4312H61.7907V7.43822C61.7907 6.27961 61.3932 5.48747 60.4007 5.48747C59.6396 5.48747 59.167 6.02263 58.9916 6.53561C58.9267 6.72349 58.9001 6.9787 58.9001 7.23647V12.431H56.1561V6.29743Z" fill="white" fill-opacity="0.48"/>
<path d="M0.0979004 36.3021V14.8267L32.3192 25.565L0.0979004 36.3021Z" fill="white" fill-opacity="0.48"/>
<path d="M0.106201 36.3031L32.3193 47.0402L64.5307 36.3031V14.8286L32.3193 25.5643L0.106201 36.3031Z" fill="white" fill-opacity="0.48"/>
<path d="M0.0999397 61.2636L0.097168 39.7812L32.3162 50.519L0.0999397 61.2636Z" fill="white" fill-opacity="0.48"/>
<path d="M64.5322 39.7812L32.3101 50.5156L0.103516 61.2596L32.3163 71.9995L64.5322 61.2563V39.7812Z" fill="white" fill-opacity="0.48"/>
</g>
<defs>
<clipPath id="clip0_2049_347">
<rect width="64.5332" height="72" fill="white"/>
</clipPath>
</defs>
</svg>
