<svg width="26" height="26" viewBox="0 0 26 26" fill="none" xmlns="http://www.w3.org/2000/svg">
<path d="M8.44984 2.16699H17.5498C21.0165 2.16699 23.8332 4.98366 23.8332 8.45033V17.5503C23.8332 19.2168 23.1712 20.815 21.9928 21.9933C20.8145 23.1717 19.2163 23.8337 17.5498 23.8337H8.44984C4.98317 23.8337 2.1665 21.017 2.1665 17.5503V8.45033C2.1665 6.78388 2.8285 5.18569 4.00685 4.00734C5.1852 2.82898 6.78339 2.16699 8.44984 2.16699ZM8.23317 4.33366C7.19883 4.33366 6.20685 4.74455 5.47545 5.47594C4.74406 6.20733 4.33317 7.19931 4.33317 8.23366V17.767C4.33317 19.9228 6.07734 21.667 8.23317 21.667H17.7665C18.8008 21.667 19.7928 21.2561 20.5242 20.5247C21.2556 19.7933 21.6665 18.8013 21.6665 17.767V8.23366C21.6665 6.07783 19.9223 4.33366 17.7665 4.33366H8.23317ZM18.6873 5.95866C19.0465 5.95866 19.3909 6.10133 19.6449 6.35528C19.8988 6.60924 20.0415 6.95368 20.0415 7.31283C20.0415 7.67197 19.8988 8.01641 19.6449 8.27037C19.3909 8.52432 19.0465 8.66699 18.6873 8.66699C18.3282 8.66699 17.9838 8.52432 17.7298 8.27037C17.4758 8.01641 17.3332 7.67197 17.3332 7.31283C17.3332 6.95368 17.4758 6.60924 17.7298 6.35528C17.9838 6.10133 18.3282 5.95866 18.6873 5.95866ZM12.9998 7.58366C14.4364 7.58366 15.8142 8.15434 16.83 9.17016C17.8458 10.186 18.4165 11.5637 18.4165 13.0003C18.4165 14.4369 17.8458 15.8147 16.83 16.8305C15.8142 17.8463 14.4364 18.417 12.9998 18.417C11.5632 18.417 10.1855 17.8463 9.16967 16.8305C8.15385 15.8147 7.58317 14.4369 7.58317 13.0003C7.58317 11.5637 8.15385 10.186 9.16967 9.17016C10.1855 8.15434 11.5632 7.58366 12.9998 7.58366ZM12.9998 9.75032C12.1379 9.75032 11.3112 10.0927 10.7017 10.7022C10.0922 11.3117 9.74984 12.1384 9.74984 13.0003C9.74984 13.8623 10.0922 14.6889 10.7017 15.2984C11.3112 15.9079 12.1379 16.2503 12.9998 16.2503C13.8618 16.2503 14.6884 15.9079 15.2979 15.2984C15.9074 14.6889 16.2498 13.8623 16.2498 13.0003C16.2498 12.1384 15.9074 11.3117 15.2979 10.7022C14.6884 10.0927 13.8618 9.75032 12.9998 9.75032Z" fill="white"/>
</svg>
