<svg width="26" height="26" viewBox="0 0 26 26" fill="none" xmlns="http://www.w3.org/2000/svg">
<path d="M11.6459 14.1267C11.6459 13.5092 11.1367 13 10.5192 13C9.90174 13 9.39258 13.5092 9.39258 14.1267C9.39258 14.4255 9.51128 14.712 9.72257 14.9233C9.93386 15.1346 10.2204 15.2533 10.5192 15.2533C10.8181 15.2533 11.1046 15.1346 11.3159 14.9233C11.5272 14.712 11.6459 14.4255 11.6459 14.1267ZM15.2642 16.6942C14.7767 17.1817 13.7367 17.355 13.0001 17.355C12.2634 17.355 11.2234 17.1817 10.7359 16.6942C10.7096 16.666 10.6777 16.6435 10.6423 16.6281C10.6069 16.6127 10.5687 16.6048 10.5301 16.6048C10.4915 16.6048 10.4533 16.6127 10.4179 16.6281C10.3825 16.6435 10.3506 16.666 10.3242 16.6942C10.296 16.7205 10.2735 16.7524 10.2582 16.7878C10.2428 16.8232 10.2349 16.8614 10.2349 16.9C10.2349 16.9386 10.2428 16.9768 10.2582 17.0122C10.2735 17.0476 10.296 17.0795 10.3242 17.1058C11.0934 17.875 12.5667 17.94 13.0001 17.94C13.4334 17.94 14.9067 17.875 15.6759 17.1058C15.7041 17.0795 15.7266 17.0476 15.742 17.0122C15.7574 16.9768 15.7653 16.9386 15.7653 16.9C15.7653 16.8614 15.7574 16.8232 15.742 16.7878C15.7266 16.7524 15.7041 16.7205 15.6759 16.6942C15.5676 16.5858 15.3834 16.5858 15.2642 16.6942ZM15.4809 13C14.8634 13 14.3542 13.5092 14.3542 14.1267C14.3542 14.7442 14.8634 15.2533 15.4809 15.2533C16.0984 15.2533 16.6076 14.7442 16.6076 14.1267C16.6076 13.5092 16.1092 13 15.4809 13Z" fill="white"/>
<path d="M12.9998 2.16699C7.01984 2.16699 2.1665 7.02033 2.1665 13.0003C2.1665 18.9803 7.01984 23.8337 12.9998 23.8337C18.9798 23.8337 23.8332 18.9803 23.8332 13.0003C23.8332 7.02033 18.9798 2.16699 12.9998 2.16699ZM19.2832 14.4412C19.3048 14.5928 19.3157 14.7553 19.3157 14.9178C19.3157 17.3445 16.4882 19.3162 12.9998 19.3162C9.5115 19.3162 6.684 17.3445 6.684 14.9178C6.684 14.7553 6.69484 14.5928 6.7165 14.4412C6.164 14.192 5.78484 13.6395 5.78484 13.0003C5.78323 12.6897 5.87346 12.3855 6.04418 12.1259C6.2149 11.8664 6.45851 11.6631 6.74441 11.5416C7.0303 11.42 7.34573 11.3857 7.65109 11.4428C7.95644 11.5 8.23809 11.6461 8.46067 11.8628C9.55484 11.072 11.0715 10.5737 12.7507 10.5195L13.5523 6.73866C13.5632 6.66282 13.6065 6.59783 13.6715 6.56533C13.7365 6.52199 13.8123 6.51116 13.8882 6.52199L16.5098 7.08533C16.5988 6.90504 16.7343 6.75182 16.9024 6.64157C17.0705 6.53131 17.265 6.46804 17.4658 6.45832C17.6666 6.44859 17.8663 6.49276 18.0443 6.58624C18.2222 6.67973 18.3719 6.81913 18.4779 6.98998C18.5838 7.16083 18.6421 7.35691 18.6467 7.55788C18.6513 7.75884 18.602 7.95739 18.504 8.1329C18.406 8.30842 18.2629 8.45452 18.0894 8.55606C17.9159 8.65759 17.7184 8.71085 17.5173 8.71032C16.9107 8.71032 16.4232 8.23366 16.3907 7.63783L14.0398 7.13949L13.3248 10.5195C14.9823 10.5737 16.4665 11.0828 17.5498 11.8628C17.7159 11.7042 17.9146 11.5839 18.1321 11.5101C18.3495 11.4363 18.5805 11.411 18.8088 11.4358C19.0371 11.4606 19.2572 11.535 19.4537 11.6538C19.6502 11.7725 19.8184 11.9328 19.9465 12.1234C20.0747 12.314 20.1596 12.5302 20.1954 12.757C20.2312 12.9839 20.217 13.2158 20.1538 13.4365C20.0906 13.6573 19.98 13.8616 19.8296 14.0351C19.6792 14.2087 19.4927 14.3472 19.2832 14.4412Z" fill="white"/>
</svg>
