<svg width="26" height="26" viewBox="0 0 26 26" fill="none" xmlns="http://www.w3.org/2000/svg">
<path fill-rule="evenodd" clip-rule="evenodd" d="M21.425 4.79913C21.6927 4.68645 21.9858 4.64759 22.2736 4.68659C22.5614 4.72559 22.8335 4.84102 23.0616 5.02087C23.2897 5.20072 23.4654 5.43842 23.5704 5.70922C23.6755 5.98002 23.706 6.27402 23.6589 6.56063L21.2019 21.464C20.9635 22.9016 19.3862 23.726 18.0678 23.01C16.965 22.4109 15.327 21.4879 13.8536 20.5248C13.117 20.0427 10.8604 18.499 11.1377 17.4005C11.376 16.4612 15.1677 12.9317 17.3344 10.8333C18.1848 10.0089 17.797 9.5333 16.7927 10.2916C14.2989 12.1745 10.2949 15.0377 8.97103 15.8437C7.8032 16.5544 7.19437 16.6757 6.46637 16.5544C5.1382 16.3334 3.90645 15.991 2.90112 15.574C1.54262 15.0106 1.6087 13.143 2.90003 12.5991L21.425 4.79913Z" fill="white"/>
</svg>
