<svg width="26" height="26" viewBox="0 0 26 26" fill="none" xmlns="http://www.w3.org/2000/svg">
<path d="M24.4191 7.24256C24.2811 6.7475 24.0174 6.29655 23.6536 5.93352C23.2898 5.57049 22.8382 5.30773 22.3429 5.17076C20.4841 4.67385 13.0119 4.67385 13.0119 4.67385C13.0119 4.67385 5.55387 4.66193 3.67576 5.17076C3.18122 5.3084 2.73063 5.57146 2.36764 5.93444C2.00466 6.29743 1.7416 6.74802 1.60396 7.24256C1.2511 9.14544 1.07725 11.0772 1.0847 13.0125C1.08068 14.9385 1.25451 16.8608 1.60396 18.7548C1.74224 19.2495 2.00545 19.7004 2.36828 20.064C2.7311 20.4276 3.18136 20.6917 3.67576 20.8311C5.5345 21.328 13.0119 21.328 13.0119 21.328C13.0119 21.328 20.4655 21.328 22.3429 20.8311C22.8381 20.6924 23.2893 20.4285 23.6529 20.0649C24.0166 19.7012 24.2805 19.2501 24.4191 18.7548C24.7611 16.8618 24.928 14.9368 24.9161 13.0125C24.928 11.0755 24.7648 9.14749 24.4191 7.24256ZM10.625 16.5787V9.43059L16.8449 13.0125L10.625 16.5787Z" fill="white"/>
</svg>
