<svg width="132" height="50" viewBox="0 0 132 50" fill="none" xmlns="http://www.w3.org/2000/svg">
<path fill-rule="evenodd" clip-rule="evenodd" d="M16.5606 17.7901C20.6321 17.7901 24.0146 17.1011 24.8603 16.1776C24.1521 15.3897 21.6152 14.7804 18.3701 14.6238V16.5706C17.7993 16.61 17.19 16.61 16.5606 16.61C15.9312 16.61 15.3421 16.5899 14.7512 16.5505V14.6238C11.5061 14.8006 8.96919 15.4098 8.26099 16.1767C9.08738 17.102 12.4901 17.7891 16.5615 17.7891M23.7792 8.64387V11.3191H18.3517V13.167C22.1667 13.364 25.0188 14.1702 25.038 15.1533V17.179C25.0188 18.1629 22.1667 18.9692 18.3508 19.1652V23.7095H14.7512V19.1854C10.9362 18.9884 8.08417 18.1822 8.06401 17.1991V15.1533C8.08417 14.1702 10.9362 13.364 14.7521 13.167V11.3191H9.32284V8.64387H23.7792ZM7.19914 4.39648H26.2373C26.6889 4.39648 27.1021 4.63286 27.3385 5.0259L32.8841 14.545C33.0248 14.7846 33.08 15.0649 33.0407 15.34C33.0015 15.6151 32.87 15.8687 32.6679 16.0594L17.4062 30.9656C17.1684 31.2017 16.8468 31.3343 16.5116 31.3343C16.1764 31.3343 15.8548 31.2017 15.617 30.9656L0.37455 16.0786C0.174002 15.8782 0.0458092 15.6167 0.0101492 15.3354C-0.0255108 15.0541 0.0333872 14.769 0.177572 14.5248L6.11714 4.9865C6.23641 4.80806 6.39714 4.66118 6.58558 4.55843C6.77401 4.45568 6.98454 4.40011 7.19914 4.39648Z" fill="white"/>
<path d="M47.3101 28.6054C45.4101 28.6054 43.9301 28.1254 42.8701 27.1654C41.8101 26.1854 41.2801 24.7354 41.2801 22.8154V8.65542H45.9601V22.7554C45.9601 23.4354 46.1401 23.9654 46.5001 24.3454C46.8601 24.7054 47.3501 24.8854 47.9701 24.8854C48.7101 24.8854 49.3401 24.6854 49.8601 24.2854L51.1201 27.5854C50.6401 27.9254 50.0601 28.1854 49.3801 28.3654C48.7201 28.5254 48.0301 28.6054 47.3101 28.6054ZM38.7901 16.1854V12.5854H49.9801V16.1854H38.7901Z" fill="white"/>
<path d="M60.0592 28.6054C58.2192 28.6054 56.5992 28.2454 55.1992 27.5254C53.8192 26.8054 52.7492 25.8254 51.9892 24.5854C51.2292 23.3254 50.8492 21.8954 50.8492 20.2954C50.8492 18.6754 51.2192 17.2454 51.9592 16.0054C52.7192 14.7454 53.7492 13.7654 55.0492 13.0654C56.3492 12.3454 57.8192 11.9854 59.4592 11.9854C61.0392 11.9854 62.4592 12.3254 63.7192 13.0054C64.9992 13.6654 66.0092 14.6254 66.7492 15.8854C67.4892 17.1254 67.8592 18.6154 67.8592 20.3554C67.8592 20.5354 67.8492 20.7454 67.8292 20.9854C67.8092 21.2054 67.7892 21.4154 67.7692 21.6154H54.6592V18.8854H65.3092L63.5092 19.6954C63.5092 18.8554 63.3392 18.1254 62.9992 17.5054C62.6592 16.8854 62.1892 16.4054 61.5892 16.0654C60.9892 15.7054 60.2892 15.5254 59.4892 15.5254C58.6892 15.5254 57.9792 15.7054 57.3592 16.0654C56.7592 16.4054 56.2892 16.8954 55.9492 17.5354C55.6092 18.1554 55.4392 18.8954 55.4392 19.7554V20.4754C55.4392 21.3554 55.6292 22.1354 56.0092 22.8154C56.4092 23.4754 56.9592 23.9854 57.6592 24.3454C58.3792 24.6854 59.2192 24.8554 60.1792 24.8554C61.0392 24.8554 61.7892 24.7254 62.4292 24.4654C63.0892 24.2054 63.6892 23.8154 64.2292 23.2954L66.7192 25.9954C65.9792 26.8354 65.0492 27.4854 63.9292 27.9454C62.8092 28.3854 61.5192 28.6054 60.0592 28.6054Z" fill="white"/>
<path d="M76.375 28.6054C74.475 28.6054 72.9949 28.1254 71.935 27.1654C70.875 26.1854 70.345 24.7354 70.345 22.8154V8.65542H75.025V22.7554C75.025 23.4354 75.205 23.9654 75.565 24.3454C75.925 24.7054 76.415 24.8854 77.035 24.8854C77.775 24.8854 78.405 24.6854 78.925 24.2854L80.185 27.5854C79.7049 27.9254 79.125 28.1854 78.445 28.3654C77.785 28.5254 77.095 28.6054 76.375 28.6054ZM67.855 16.1854V12.5854H79.045V16.1854H67.855Z" fill="white"/>
<path d="M91.4221 11.9854C92.7021 11.9854 93.8421 12.2454 94.8421 12.7654C95.8621 13.2654 96.6621 14.0454 97.2421 15.1054C97.8221 16.1454 98.1121 17.4854 98.1121 19.1254V28.3654H93.4321V19.8454C93.4321 18.5454 93.1421 17.5854 92.5621 16.9654C92.0021 16.3454 91.2021 16.0354 90.1621 16.0354C89.4221 16.0354 88.7521 16.1954 88.1521 16.5154C87.5721 16.8154 87.1121 17.2854 86.7721 17.9254C86.4521 18.5654 86.2921 19.3854 86.2921 20.3854V28.3654H81.6121V6.10542H86.2921V16.6954L85.2421 15.3454C85.8221 14.2654 86.6521 13.4354 87.7321 12.8554C88.8121 12.2754 90.0421 11.9854 91.4221 11.9854Z" fill="white"/>
<path d="M109.281 28.6054C107.441 28.6054 105.821 28.2454 104.421 27.5254C103.041 26.8054 101.971 25.8254 101.211 24.5854C100.451 23.3254 100.071 21.8954 100.071 20.2954C100.071 18.6754 100.441 17.2454 101.181 16.0054C101.941 14.7454 102.971 13.7654 104.271 13.0654C105.571 12.3454 107.041 11.9854 108.681 11.9854C110.261 11.9854 111.681 12.3254 112.941 13.0054C114.221 13.6654 115.231 14.6254 115.971 15.8854C116.711 17.1254 117.081 18.6154 117.081 20.3554C117.081 20.5354 117.071 20.7454 117.051 20.9854C117.031 21.2054 117.011 21.4154 116.991 21.6154H103.881V18.8854H114.531L112.731 19.6954C112.731 18.8554 112.561 18.1254 112.221 17.5054C111.881 16.8854 111.411 16.4054 110.811 16.0654C110.211 15.7054 109.511 15.5254 108.711 15.5254C107.911 15.5254 107.201 15.7054 106.581 16.0654C105.981 16.4054 105.511 16.8954 105.171 17.5354C104.831 18.1554 104.661 18.8954 104.661 19.7554V20.4754C104.661 21.3554 104.851 22.1354 105.231 22.8154C105.631 23.4754 106.181 23.9854 106.881 24.3454C107.601 24.6854 108.441 24.8554 109.401 24.8554C110.261 24.8554 111.011 24.7254 111.651 24.4654C112.311 24.2054 112.911 23.8154 113.451 23.2954L115.941 25.9954C115.201 26.8354 114.271 27.4854 113.151 27.9454C112.031 28.3854 110.741 28.6054 109.281 28.6054Z" fill="white"/>
<path d="M118.997 28.3654V12.2254H123.467V16.7854L122.837 15.4654C123.317 14.3254 124.087 13.4654 125.147 12.8854C126.207 12.2854 127.497 11.9854 129.017 11.9854V16.3054C128.817 16.2854 128.637 16.2754 128.477 16.2754C128.317 16.2554 128.147 16.2454 127.967 16.2454C126.687 16.2454 125.647 16.6154 124.847 17.3554C124.067 18.0754 123.677 19.2054 123.677 20.7454V28.3654H118.997Z" fill="white"/>
<path d="M100.251 46.24C99.2914 46.24 98.4057 46.0857 97.5943 45.7771C96.7829 45.4686 96.0743 45.0343 95.4686 44.4743C94.8743 43.9029 94.4114 43.24 94.08 42.4857C93.7486 41.7314 93.5829 40.9029 93.5829 40C93.5829 39.0971 93.7486 38.2686 94.08 37.5143C94.4114 36.76 94.8743 36.1029 95.4686 35.5429C96.0743 34.9714 96.7829 34.5314 97.5943 34.2229C98.4057 33.9143 99.2914 33.76 100.251 33.76C101.223 33.76 102.109 33.9143 102.909 34.2229C103.72 34.5314 104.423 34.9714 105.017 35.5429C105.611 36.1029 106.074 36.76 106.406 37.5143C106.749 38.2686 106.92 39.0971 106.92 40C106.92 40.9029 106.749 41.7371 106.406 42.5029C106.074 43.2571 105.611 43.9143 105.017 44.4743C104.423 45.0343 103.72 45.4686 102.909 45.7771C102.109 46.0857 101.223 46.24 100.251 46.24ZM100.251 43.4286C100.709 43.4286 101.131 43.3486 101.52 43.1886C101.92 43.0286 102.263 42.8 102.549 42.5029C102.846 42.1943 103.074 41.8286 103.234 41.4057C103.406 40.9829 103.491 40.5143 103.491 40C103.491 39.4743 103.406 39.0057 103.234 38.5943C103.074 38.1714 102.846 37.8114 102.549 37.5143C102.263 37.2057 101.92 36.9714 101.52 36.8114C101.131 36.6514 100.709 36.5714 100.251 36.5714C99.7943 36.5714 99.3657 36.6514 98.9657 36.8114C98.5771 36.9714 98.2343 37.2057 97.9371 37.5143C97.6514 37.8114 97.4229 38.1714 97.2514 38.5943C97.0914 39.0057 97.0114 39.4743 97.0114 40C97.0114 40.5143 97.0914 40.9829 97.2514 41.4057C97.4229 41.8286 97.6514 42.1943 97.9371 42.5029C98.2343 42.8 98.5771 43.0286 98.9657 43.1886C99.3657 43.3486 99.7943 43.4286 100.251 43.4286Z" fill="white"/>
<path d="M108.183 46V34H111.578V46H108.183Z" fill="white"/>
<path d="M113.478 46V34H116.873V43.3086H122.598V46H113.478Z" fill="white"/>
</svg>
