<svg width="201" height="201" viewBox="0 0 201 201" fill="none" xmlns="http://www.w3.org/2000/svg">
<rect x="0.293457" width="200" height="200" rx="100" fill="#232527"/>
<mask id="path-2-inside-1_2025_168" fill="white">
<path d="M200 100.293C200 116.074 196.265 131.631 189.101 145.693C181.936 159.754 171.546 171.919 158.779 181.195C146.011 190.471 131.23 196.594 115.644 199.062C100.057 201.531 84.107 200.276 69.0984 195.399C54.0897 190.522 40.4483 182.163 29.2894 171.004C18.1305 159.845 9.77105 146.204 4.89444 131.195C0.017829 116.186 -1.23744 100.237 1.23126 84.65C3.69996 69.0633 9.82253 54.2821 19.0984 41.5149L24.5997 45.5119C15.9546 57.4108 10.2484 71.1869 7.94754 85.7138C5.64671 100.241 6.81663 115.106 11.3616 129.094C15.9066 143.082 23.6977 155.796 34.0977 166.196C44.4978 176.596 57.2116 184.387 71.1997 188.932C85.1878 193.477 100.053 194.647 114.58 192.346C129.107 190.045 142.883 184.339 154.782 175.694C166.681 167.049 176.365 155.71 183.042 142.605C189.719 129.501 193.2 115.001 193.2 100.293H200Z"/>
</mask>
<path d="M200 100.293C200 116.074 196.265 131.631 189.101 145.693C181.936 159.754 171.546 171.919 158.779 181.195C146.011 190.471 131.23 196.594 115.644 199.062C100.057 201.531 84.107 200.276 69.0984 195.399C54.0897 190.522 40.4483 182.163 29.2894 171.004C18.1305 159.845 9.77105 146.204 4.89444 131.195C0.017829 116.186 -1.23744 100.237 1.23126 84.65C3.69996 69.0633 9.82253 54.2821 19.0984 41.5149L24.5997 45.5119C15.9546 57.4108 10.2484 71.1869 7.94754 85.7138C5.64671 100.241 6.81663 115.106 11.3616 129.094C15.9066 143.082 23.6977 155.796 34.0977 166.196C44.4978 176.596 57.2116 184.387 71.1997 188.932C85.1878 193.477 100.053 194.647 114.58 192.346C129.107 190.045 142.883 184.339 154.782 175.694C166.681 167.049 176.365 155.71 183.042 142.605C189.719 129.501 193.2 115.001 193.2 100.293H200Z" fill="white" fill-opacity="0.36" stroke="#232527" stroke-width="1.48699" mask="url(#path-2-inside-1_2025_168)"/>
<mask id="path-3-inside-2_2025_168" fill="white">
<path d="M130.924 5.19453C151.007 11.7249 168.507 24.4455 180.915 41.5331C193.324 58.6207 200.005 79.1981 200 100.316L193.2 100.314C193.205 80.6325 186.978 61.4544 175.413 45.5288C163.848 29.6031 147.538 17.7476 128.821 11.6612L130.924 5.19453Z"/>
</mask>
<path d="M130.924 5.19453C151.007 11.7249 168.507 24.4455 180.915 41.5331C193.324 58.6207 200.005 79.1981 200 100.316L193.2 100.314C193.205 80.6325 186.978 61.4544 175.413 45.5288C163.848 29.6031 147.538 17.7476 128.821 11.6612L130.924 5.19453Z" fill="white" fill-opacity="0.3" stroke="#232527" stroke-width="1.48699" mask="url(#path-3-inside-2_2025_168)"/>
<mask id="path-4-inside-3_2025_168" fill="white">
<path d="M69.0789 5.19391C89.1619 -1.336 110.797 -1.34043 130.882 5.18126L128.782 11.6489C110.062 5.57066 89.8989 5.57479 71.1815 11.6607L69.0789 5.19391Z"/>
</mask>
<path d="M69.0789 5.19391C89.1619 -1.336 110.797 -1.34043 130.882 5.18126L128.782 11.6489C110.062 5.57066 89.8989 5.57479 71.1815 11.6607L69.0789 5.19391Z" fill="white" fill-opacity="0.18" stroke="#232527" stroke-width="1.48699" mask="url(#path-4-inside-3_2025_168)"/>
<mask id="path-5-inside-4_2025_168" fill="white">
<path d="M41.1757 19.4245C49.6616 13.2518 59.0663 8.45311 69.0444 5.20476L71.1494 11.6708C61.8498 14.6982 53.0847 19.1706 45.1757 24.9236L41.1757 19.4245Z"/>
</mask>
<path d="M41.1757 19.4245C49.6616 13.2518 59.0663 8.45311 69.0444 5.20476L71.1494 11.6708C61.8498 14.6982 53.0847 19.1706 45.1757 24.9236L41.1757 19.4245Z" fill="white" fill-opacity="0.12" stroke="#232527" stroke-width="1.48699" mask="url(#path-5-inside-4_2025_168)"/>
<mask id="path-6-inside-5_2025_168" fill="white">
<path d="M19.0646 41.5613C25.2277 33.0682 32.6891 25.5982 41.1751 19.4254L45.1752 24.9244C37.2663 30.6775 30.3122 37.6395 24.5682 45.555L19.0646 41.5613Z"/>
</mask>
<path d="M19.0646 41.5613C25.2277 33.0682 32.6891 25.5982 41.1751 19.4254L45.1752 24.9244C37.2663 30.6775 30.3122 37.6395 24.5682 45.555L19.0646 41.5613Z" fill="white" fill-opacity="0.06" stroke="#232527" stroke-width="1.48699" mask="url(#path-6-inside-5_2025_168)"/>
<path fill-rule="evenodd" clip-rule="evenodd" d="M51.8395 93.2706C55.8057 93.2706 59.1007 92.5994 59.9245 91.6998C59.2346 90.9323 56.7633 90.3388 53.6022 90.1862V92.0827C53.0461 92.1211 52.4526 92.1211 51.8395 92.1211C51.2264 92.1211 50.6525 92.1014 50.0769 92.0631V90.1862C46.9157 90.3584 44.4444 90.9519 43.7545 91.6989C44.5595 92.6003 47.8742 93.2697 51.8404 93.2697M58.8714 84.3609V86.967H53.5843V88.7671C57.3006 88.959 60.0789 89.7444 60.0976 90.702V92.6753C60.0789 93.6338 57.3006 94.4192 53.5834 94.6102V99.0369H50.0769V94.6298C46.3606 94.438 43.5823 93.6526 43.5626 92.6949V90.702C43.5823 89.7444 46.3606 88.959 50.0777 88.7671V86.967H44.7889V84.3609H58.8714ZM42.7201 80.2234H61.2659C61.7059 80.2234 62.1084 80.4536 62.3387 80.8365L67.7409 90.1094C67.8779 90.3429 67.9317 90.6159 67.8934 90.8839C67.8552 91.1518 67.7271 91.3989 67.5302 91.5847L52.6633 106.105C52.4315 106.335 52.1183 106.465 51.7918 106.465C51.4652 106.465 51.152 106.335 50.9202 106.105L36.072 91.6034C35.8767 91.4082 35.7518 91.1535 35.717 90.8794C35.6823 90.6054 35.7397 90.3276 35.8801 90.0898L41.6661 80.7981C41.7823 80.6243 41.9389 80.4812 42.1224 80.3811C42.306 80.281 42.5111 80.2269 42.7201 80.2234Z" fill="white"/>
<path d="M81.7938 103.806C79.9429 103.806 78.5012 103.339 77.4686 102.404C76.436 101.449 75.9197 100.036 75.9197 98.166V84.3722H80.4787V98.1075C80.4787 98.77 80.654 99.2863 81.0047 99.6564C81.3554 100.007 81.8328 100.182 82.4367 100.182C83.1576 100.182 83.7713 99.9876 84.2778 99.598L85.5053 102.813C85.0377 103.144 84.4727 103.397 83.8103 103.572C83.1673 103.728 82.4952 103.806 81.7938 103.806ZM73.4941 91.7075V88.2006H84.3947V91.7075H73.4941Z" fill="white"/>
<path d="M94.2131 103.806C92.4207 103.806 90.8426 103.456 89.4788 102.754C88.1345 102.053 87.0922 101.098 86.3518 99.8902C85.6115 98.6628 85.2413 97.2698 85.2413 95.7112C85.2413 94.1331 85.6018 92.74 86.3226 91.5321C87.063 90.3047 88.0663 89.35 89.3327 88.6681C90.5991 87.9668 92.0311 87.6161 93.6287 87.6161C95.1678 87.6161 96.5511 87.9473 97.7785 88.6097C99.0254 89.2526 100.009 90.1878 100.73 91.4152C101.451 92.6231 101.811 94.0746 101.811 95.7696C101.811 95.945 101.802 96.1495 101.782 96.3833C101.763 96.5976 101.743 96.8022 101.724 96.997H88.9528V94.3376H99.3274L97.5739 95.1267C97.5739 94.3084 97.4083 93.5973 97.0771 92.9933C96.7459 92.3894 96.2881 91.9218 95.7036 91.5906C95.1191 91.2399 94.4372 91.0645 93.6579 91.0645C92.8786 91.0645 92.1869 91.2399 91.583 91.5906C90.9985 91.9218 90.5406 92.3991 90.2094 93.0225C89.8782 93.6265 89.7126 94.3474 89.7126 95.1851V95.8865C89.7126 96.7438 89.8977 97.5036 90.2679 98.166C90.6575 98.8089 91.1933 99.3057 91.8752 99.6564C92.5766 99.9876 93.3949 100.153 94.33 100.153C95.1678 100.153 95.8984 100.027 96.5219 99.7733C97.1648 99.5201 97.7493 99.1401 98.2753 98.6336L100.701 101.264C99.9801 102.082 99.0741 102.715 97.9831 103.163C96.892 103.592 95.6354 103.806 94.2131 103.806Z" fill="white"/>
<path d="M110.107 103.806C108.256 103.806 106.814 103.339 105.782 102.404C104.749 101.449 104.233 100.036 104.233 98.166V84.3722H108.792V98.1075C108.792 98.77 108.967 99.2863 109.318 99.6564C109.669 100.007 110.146 100.182 110.75 100.182C111.471 100.182 112.084 99.9876 112.591 99.598L113.818 102.813C113.351 103.144 112.786 103.397 112.123 103.572C111.481 103.728 110.808 103.806 110.107 103.806ZM101.807 91.7075V88.2006H112.708V91.7075H101.807Z" fill="white"/>
<path d="M124.765 87.6161C126.012 87.6161 127.122 87.8693 128.097 88.3759C129.09 88.863 129.869 89.6228 130.434 90.6554C130.999 91.6685 131.282 92.9738 131.282 94.5714V103.572H126.723V95.2728C126.723 94.0064 126.44 93.0712 125.875 92.4673C125.33 91.8633 124.551 91.5613 123.538 91.5613C122.817 91.5613 122.164 91.7172 121.58 92.0289C121.015 92.3212 120.566 92.779 120.235 93.4025C119.923 94.0259 119.768 94.8247 119.768 95.7988V103.572H115.209V81.8881H119.768V92.2043L118.745 90.8892C119.31 89.8371 120.118 89.0286 121.17 88.4636C122.222 87.8986 123.421 87.6161 124.765 87.6161Z" fill="white"/>
<path d="M142.162 103.806C140.37 103.806 138.792 103.456 137.428 102.754C136.084 102.053 135.042 101.098 134.301 99.8902C133.561 98.6628 133.191 97.2698 133.191 95.7112C133.191 94.1331 133.551 92.74 134.272 91.5321C135.012 90.3047 136.016 89.35 137.282 88.6681C138.548 87.9668 139.98 87.6161 141.578 87.6161C143.117 87.6161 144.5 87.9473 145.728 88.6097C146.975 89.2526 147.959 90.1878 148.679 91.4152C149.4 92.6231 149.761 94.0746 149.761 95.7696C149.761 95.945 149.751 96.1495 149.732 96.3833C149.712 96.5976 149.693 96.8022 149.673 96.997H136.902V94.3376H147.277L145.523 95.1267C145.523 94.3084 145.358 93.5973 145.026 92.9933C144.695 92.3894 144.237 91.9218 143.653 91.5906C143.068 91.2399 142.387 91.0645 141.607 91.0645C140.828 91.0645 140.136 91.2399 139.532 91.5906C138.948 91.9218 138.49 92.3991 138.159 93.0225C137.828 93.6265 137.662 94.3474 137.662 95.1851V95.8865C137.662 96.7438 137.847 97.5036 138.217 98.166C138.607 98.8089 139.143 99.3057 139.825 99.6564C140.526 99.9876 141.344 100.153 142.279 100.153C143.117 100.153 143.848 100.027 144.471 99.7733C145.114 99.5201 145.699 99.1401 146.225 98.6336L148.65 101.264C147.929 102.082 147.023 102.715 145.932 103.163C144.841 103.592 143.585 103.806 142.162 103.806Z" fill="white"/>
<path d="M151.627 103.572V87.8499H155.981V92.2919L155.368 91.0061C155.835 89.8956 156.585 89.0578 157.618 88.4928C158.651 87.9083 159.907 87.6161 161.388 87.6161V91.8244C161.193 91.8049 161.018 91.7951 160.862 91.7951C160.706 91.7756 160.54 91.7659 160.365 91.7659C159.118 91.7659 158.105 92.1263 157.326 92.8472C156.566 93.5486 156.186 94.6494 156.186 96.1495V103.572H151.627Z" fill="white"/>
<path d="M133.366 120.985C132.431 120.985 131.568 120.835 130.778 120.534C129.987 120.233 129.297 119.81 128.707 119.265C128.128 118.708 127.677 118.062 127.354 117.328C127.031 116.593 126.87 115.786 126.87 114.906C126.87 114.027 127.031 113.22 127.354 112.485C127.677 111.75 128.128 111.11 128.707 110.564C129.297 110.008 129.987 109.579 130.778 109.278C131.568 108.978 132.431 108.828 133.366 108.828C134.312 108.828 135.175 108.978 135.954 109.278C136.745 109.579 137.43 110.008 138.008 110.564C138.587 111.11 139.038 111.75 139.361 112.485C139.695 113.22 139.862 114.027 139.862 114.906C139.862 115.786 139.695 116.598 139.361 117.344C139.038 118.079 138.587 118.719 138.008 119.265C137.43 119.81 136.745 120.233 135.954 120.534C135.175 120.835 134.312 120.985 133.366 120.985ZM133.366 118.246C133.811 118.246 134.223 118.168 134.602 118.012C134.991 117.856 135.325 117.634 135.604 117.344C135.893 117.044 136.116 116.687 136.272 116.276C136.439 115.864 136.522 115.407 136.522 114.906C136.522 114.394 136.439 113.938 136.272 113.537C136.116 113.125 135.893 112.774 135.604 112.485C135.325 112.184 134.991 111.956 134.602 111.8C134.223 111.644 133.811 111.566 133.366 111.566C132.921 111.566 132.503 111.644 132.114 111.8C131.735 111.956 131.401 112.184 131.112 112.485C130.833 112.774 130.611 113.125 130.444 113.537C130.288 113.938 130.21 114.394 130.21 114.906C130.21 115.407 130.288 115.864 130.444 116.276C130.611 116.687 130.833 117.044 131.112 117.344C131.401 117.634 131.735 117.856 132.114 118.012C132.503 118.168 132.921 118.246 133.366 118.246Z" fill="white"/>
<path d="M141.093 120.751V109.061H144.399V120.751H141.093Z" fill="white"/>
<path d="M146.251 120.751V109.061H149.557V118.129H155.135V120.751H146.251Z" fill="white"/>
</svg>
