<?xml version="1.0" encoding="utf-8"?><svg viewBox="0 0 128 104" xmlns="http://www.w3.org/2000/svg" xmlns:xlink="http://www.w3.org/1999/xlink"><style>:root>svg{display:none}:root>svg:target{display:block}</style><svg viewBox="0 0 16 16" id="copy-icon" xmlns="http://www.w3.org/2000/svg"><path d="M13.95 4.716c.459.459.716 1.08.717 1.729v5.777a2.444 2.444 0 01-2.445 2.445H6.445A2.445 2.445 0 014 12.222V6.445a.67.67 0 01.003-.068A2.44 2.44 0 016.445 4h5.777c.649 0 1.27.257 1.729.716z"/><path d="M11.583 2.342a.667.667 0 11-1.165.648c-.148-.265-.228-.324-.418-.324H3.333a.67.67 0 00-.666.667v6.665c0 .24.13.462.338.58a.668.668 0 01.079 1.106.668.668 0 01-.74.053A2 2 0 011.335 10V3.333c0-1.101.898-2 2-2H10c.73 0 1.219.355 1.583 1.01z"/></svg><svg viewBox="0 0 16 16" id="demand" xmlns="http://www.w3.org/2000/svg"><path d="M11.2 2.2a.6.6 0 01.6-.6h2a.6.6 0 01.6.6v2a.6.6 0 11-1.2 0v-.552L9.624 7.224a.6.6 0 01-.848 0L6.8 5.248 3.424 8.624a.6.6 0 11-.848-.848l3.8-3.8a.6.6 0 01.848 0L9.2 5.952 12.352 2.8H11.8a.6.6 0 01-.6-.6zm-8.2 9a.6.6 0 01.6.6v2a.6.6 0 01-1.2 0v-2a.6.6 0 01.6-.6zm3.8-1.8a.6.6 0 00-1.2 0v4.4a.6.6 0 001.2 0V9.4zm2.6 1a.6.6 0 01.6.6v2.8a.6.6 0 01-1.2 0V11a.6.6 0 01.6-.6zm3.8-2.6a.6.6 0 10-1.2 0v6a.6.6 0 101.2 0v-6z" fill-opacity=".6"/></svg><svg viewBox="0 0 128 104" id="favicon" xmlns="http://www.w3.org/2000/svg"><path fill-rule="evenodd" clip-rule="evenodd" d="M64.132 51.71c15.767 0 28.866-2.66 32.14-6.226-2.742-3.042-12.566-5.394-25.133-6v7.517c-2.21.152-4.57.152-7.007.152-2.437 0-4.719-.077-7.007-.23v-7.438c-12.567.683-22.391 3.035-25.134 5.995 3.2 3.573 16.377 6.226 32.145 6.226m27.95-35.308v10.329H71.068v7.134c14.774.76 25.819 3.873 25.893 7.668v7.821c-.074 3.799-11.12 6.911-25.896 7.669v17.544h-13.94V57.096c-14.774-.76-25.819-3.873-25.897-7.668v-7.899c.078-3.795 11.123-6.908 25.9-7.668v-7.134H36.103V16.398h55.983zM27.88 0h73.726c1.75 0 3.35.913 4.265 2.43l21.476 36.75a4.727 4.727 0 01-.838 5.848l-59.101 57.549a4.928 4.928 0 01-6.93 0L1.45 45.102a4.928 4.928 0 01-.762-6L23.689 2.279A5.138 5.138 0 0127.879 0z"/></svg><svg viewBox="0 0 40 40" id="impact" xmlns="http://www.w3.org/2000/svg"><path d="M6.667 35c-.473 0-.868-.16-1.187-.48A1.62 1.62 0 015 33.333a1.603 1.603 0 01.48-1.186c.321-.32.717-.48 1.187-.48h1.666v-10H6.667c-.473 0-.868-.16-1.187-.48A1.62 1.62 0 015 20a1.603 1.603 0 01.48-1.187c.321-.32.717-.48 1.187-.48h1.666v-10H6.667c-.473 0-.868-.16-1.187-.48A1.62 1.62 0 015 6.667a1.603 1.603 0 01.48-1.187c.321-.32.717-.48 1.187-.48h26.666c.473 0 .869.16 1.189.48.32.32.48.716.478 1.187a1.626 1.626 0 01-.48 1.188c-.319.321-.714.48-1.187.478h-1.666v10h1.666c.473 0 .869.16 1.189.48.32.32.48.716.478 1.187a1.626 1.626 0 01-.48 1.188c-.319.321-.714.48-1.187.479h-1.666v10h1.666c.473 0 .869.16 1.189.48.32.32.48.715.478 1.186a1.626 1.626 0 01-.48 1.189c-.319.32-.714.48-1.187.478H6.667zm5-3.333h16.666v-10c-.472 0-.867-.16-1.186-.48a1.62 1.62 0 01-.48-1.187 1.604 1.604 0 01.48-1.187c.32-.32.716-.48 1.186-.48v-10H11.667v10c.472 0 .868.16 1.188.48.32.32.48.716.478 1.187a1.626 1.626 0 01-.48 1.188c-.319.321-.714.48-1.186.479v10zm11.875-6.439C24.514 24.272 25 23.112 25 21.75c0-1.083-.312-2.014-.937-2.792-.624-.777-1.979-2.375-4.063-4.791-2.083 2.389-3.437 3.98-4.062 4.771-.624.793-.937 1.73-.938 2.812 0 1.361.486 2.521 1.458 3.48.973.959 2.153 1.438 3.542 1.437 1.389-.001 2.57-.482 3.542-1.439z"/></svg><svg viewBox="0 0 40 40" id="income" xmlns="http://www.w3.org/2000/svg"><path d="M14 35c-2.528 0-4.66-.868-6.397-2.603C5.867 30.66 5 28.529 5 26c0-1.056.18-2.083.542-3.083.36-1 .875-1.903 1.541-2.709L13 13.083l-2.833-5.666c-.278-.556-.257-1.098.063-1.625.32-.528.799-.792 1.437-.792h16.666c.64 0 1.119.264 1.439.792.32.527.34 1.07.061 1.625L27 13.083l5.917 7.125a9.019 9.019 0 011.541 2.709c.361 1 .542 2.027.542 3.083 0 2.528-.875 4.66-2.625 6.397C30.625 34.133 28.5 35 26 35H14zm6-8.333a3.208 3.208 0 01-2.353-.979 3.216 3.216 0 01-.98-2.355 3.193 3.193 0 01.98-2.353c.654-.651 1.439-.978 2.353-.98.914-.002 1.7.324 2.355.98.656.656.982 1.44.978 2.353-.003.914-.33 1.699-.978 2.355a3.166 3.166 0 01-2.355.979zm-3.958-15h7.916l1.667-3.334h-11.25l1.667 3.334zm-2.042 20h12c1.583 0 2.924-.549 4.022-1.645 1.097-1.097 1.646-2.438 1.645-4.022 0-.667-.119-1.312-.355-1.937a5.9 5.9 0 00-.979-1.688L24.208 15h-8.375l-6.166 7.333c-.417.5-.743 1.07-.979 1.709A5.647 5.647 0 008.333 26c0 1.583.55 2.924 1.647 4.022 1.098 1.097 2.438 1.646 4.02 1.645z"/></svg><svg viewBox="0 0 40 40" id="market" xmlns="http://www.w3.org/2000/svg"><path d="M17.417 21.625l2.166 2.167c.306.305.695.458 1.167.458.472 0 .861-.153 1.167-.458l4.75-4.75v1c0 .472.16.86.48 1.166.32.306.715.459 1.186.459s.868-.16 1.189-.479c.32-.319.48-.715.478-1.188v-5c0-.472-.16-.868-.48-1.187a1.62 1.62 0 00-1.187-.48h-5.041c-.473 0-.861.16-1.167.48-.306.32-.458.716-.458 1.187 0 .471.16.867.48 1.188.32.321.715.48 1.186.479h.959L20.75 20.25l-2.167-2.167c-.305-.333-.694-.5-1.166-.5-.473 0-.861.167-1.167.5l-5.083 5.084c-.334.305-.5.694-.5 1.166 0 .473.166.861.5 1.167.305.333.694.5 1.166.5.473 0 .861-.167 1.167-.5l3.917-3.875zM8.333 35a3.208 3.208 0 01-2.353-.978A3.216 3.216 0 015 31.667V8.333c0-.916.327-1.7.98-2.353A3.218 3.218 0 018.333 5h23.334c.916 0 1.701.327 2.355.98.653.653.98 1.438.978 2.353v23.334c0 .916-.326 1.701-.978 2.355a3.202 3.202 0 01-2.355.978H8.333zm0-3.333h23.334V8.333H8.333v23.334z"/></svg><svg viewBox="0 0 24 24" id="next" xmlns="http://www.w3.org/2000/svg"><g opacity=".2" clip-path="url(#gclip0_2078_10481)" fill-rule="evenodd" clip-rule="evenodd"><path d="M18.045 10.938a1 1 0 010 1.414l-5.657 5.657a1 1 0 11-1.414-1.414l4.95-4.95-4.95-4.95a1 1 0 011.414-1.414l5.657 5.657z"/><path d="M12.376 10.938a1 1 0 010 1.414L6.72 18.009a1 1 0 11-1.414-1.414l4.95-4.95-4.95-4.95A1 1 0 016.72 5.28l5.657 5.657z"/></g><defs><clipPath id="gclip0_2078_10481"><path d="M0 0h24v24H0z"/></clipPath></defs></svg><svg viewBox="0 0 46 44" id="tether-white" xmlns="http://www.w3.org/2000/svg"><path fill-rule="evenodd" clip-rule="evenodd" d="M22.968 21.897c5.589 0 10.232-.946 11.393-2.214-.972-1.082-4.455-1.918-8.91-2.133v2.673c-.783.054-1.62.054-2.483.054-.864 0-1.673-.028-2.484-.082V17.55c-4.455.243-7.938 1.08-8.91 2.132 1.134 1.27 5.806 2.213 11.395 2.213m9.908-12.554v3.672h-7.45v2.537c5.237.27 9.152 1.377 9.178 2.727v2.78c-.026 1.352-3.941 2.458-9.18 2.727v6.239h-4.941v-6.21c-5.238-.271-9.153-1.378-9.18-2.728v-2.808c.027-1.35 3.942-2.456 9.18-2.727v-2.537h-7.452V9.341h19.845zM10.117 3.51h26.135c.62 0 1.187.325 1.511.864l7.613 13.068a1.685 1.685 0 01-.296 2.079L24.129 39.984a1.743 1.743 0 01-2.457 0L.747 19.547a1.755 1.755 0 01-.27-2.133L8.631 4.32a1.824 1.824 0 011.485-.81z"/></svg></svg>