<svg width="16" height="16" viewBox="0 0 16 16" fill="none" xmlns="http://www.w3.org/2000/svg">
<path d="M13.9507 4.716C14.4089 5.1746 14.6665 5.79634 14.6667 6.44467V12.222C14.6667 12.8704 14.4091 13.4922 13.9506 13.9506C13.4922 14.4091 12.8704 14.6667 12.222 14.6667H6.44467C5.7963 14.6667 5.17449 14.4091 4.71603 13.9506C4.25756 13.4922 4 12.8704 4 12.222V6.44467C4 6.42111 4.00111 6.39845 4.00333 6.37667C4.01986 5.74035 4.28438 5.13568 4.74048 4.69166C5.19658 4.24764 5.80813 3.99944 6.44467 4H12.222C12.8707 4 13.492 4.25733 13.9507 4.716Z" fill="white"/>
<path d="M11.5828 2.34234C11.6254 2.41886 11.6524 2.50301 11.6625 2.58998C11.6725 2.67696 11.6653 2.76505 11.6413 2.84925C11.6173 2.93344 11.5769 3.01207 11.5225 3.08067C11.4681 3.14926 11.4007 3.20646 11.3242 3.24901C11.2476 3.29156 11.1635 3.31862 11.0765 3.32864C10.9895 3.33867 10.9015 3.33147 10.8173 3.30745C10.7331 3.28343 10.6544 3.24306 10.5858 3.18865C10.5172 3.13425 10.46 3.06686 10.4175 2.99034C10.2702 2.72501 10.1895 2.66634 10.0002 2.66634H3.3335C2.96816 2.66634 2.66683 2.96767 2.66683 3.33301V9.99834C2.66683 10.2383 2.79616 10.4597 3.00483 10.5783C3.08091 10.6217 3.14771 10.6796 3.20141 10.7487C3.25511 10.8179 3.29467 10.8969 3.31783 10.9814C3.34098 11.0658 3.34727 11.154 3.33635 11.2409C3.32543 11.3277 3.2975 11.4116 3.25416 11.4877C3.21083 11.5638 3.15293 11.6306 3.08378 11.6843C3.01463 11.738 2.93557 11.7775 2.85113 11.8007C2.7667 11.8238 2.67852 11.8301 2.59165 11.8192C2.50478 11.8083 2.42091 11.7803 2.34483 11.737C2.0379 11.5625 1.78266 11.3098 1.60502 11.0046C1.42739 10.6995 1.33371 10.3528 1.3335 9.99967V3.33301C1.3335 2.23167 2.23216 1.33301 3.3335 1.33301H10.0002C10.7295 1.33301 11.2188 1.68834 11.5828 2.34234Z" fill="white"/>
</svg>
