<svg width="16" height="16" viewBox="0 0 16 16" fill="none" xmlns="http://www.w3.org/2000/svg">
<path d="M11.2001 2.19998C11.2001 2.04085 11.2633 1.88823 11.3758 1.77571C11.4883 1.66319 11.6409 1.59998 11.8001 1.59998H13.8001C13.9592 1.59998 14.1118 1.66319 14.2243 1.77571C14.3369 1.88823 14.4001 2.04085 14.4001 2.19998V4.19998C14.4001 4.35911 14.3369 4.51172 14.2243 4.62424C14.1118 4.73676 13.9592 4.79998 13.8001 4.79998C13.6409 4.79998 13.4883 4.73676 13.3758 4.62424C13.2633 4.51172 13.2001 4.35911 13.2001 4.19998V3.64798L9.62407 7.22398C9.51157 7.33634 9.35907 7.39945 9.20007 7.39945C9.04107 7.39945 8.88857 7.33634 8.77607 7.22398L6.80007 5.24798L3.42407 8.62398C3.36914 8.68292 3.3029 8.73021 3.2293 8.763C3.1557 8.79579 3.07625 8.81343 2.99569 8.81485C2.91512 8.81627 2.8351 8.80145 2.76039 8.77127C2.68568 8.7411 2.61781 8.69618 2.56084 8.63921C2.50386 8.58223 2.45895 8.51436 2.42877 8.43965C2.39859 8.36494 2.38377 8.28492 2.38519 8.20436C2.38662 8.1238 2.40425 8.04434 2.43704 7.97075C2.46984 7.89715 2.51712 7.83091 2.57607 7.77598L6.37607 3.97598C6.48857 3.86362 6.64107 3.8005 6.80007 3.8005C6.95907 3.8005 7.11157 3.86362 7.22407 3.97598L9.20007 5.95198L12.3521 2.79998H11.8001C11.6409 2.79998 11.4883 2.73676 11.3758 2.62424C11.2633 2.51172 11.2001 2.35911 11.2001 2.19998ZM3.00007 11.2C3.1592 11.2 3.31181 11.2632 3.42433 11.3757C3.53685 11.4882 3.60007 11.6408 3.60007 11.8V13.8C3.60007 13.9591 3.53685 14.1117 3.42433 14.2242C3.31181 14.3368 3.1592 14.4 3.00007 14.4C2.84094 14.4 2.68833 14.3368 2.5758 14.2242C2.46328 14.1117 2.40007 13.9591 2.40007 13.8V11.8C2.40007 11.6408 2.46328 11.4882 2.5758 11.3757C2.68833 11.2632 2.84094 11.2 3.00007 11.2ZM6.80007 9.39998C6.80007 9.24085 6.73685 9.08823 6.62433 8.97571C6.51181 8.86319 6.3592 8.79998 6.20007 8.79998C6.04094 8.79998 5.88833 8.86319 5.7758 8.97571C5.66328 9.08823 5.60007 9.24085 5.60007 9.39998V13.8C5.60007 13.9591 5.66328 14.1117 5.7758 14.2242C5.88833 14.3368 6.04094 14.4 6.20007 14.4C6.3592 14.4 6.51181 14.3368 6.62433 14.2242C6.73685 14.1117 6.80007 13.9591 6.80007 13.8V9.39998ZM9.40007 10.4C9.5592 10.4 9.71181 10.4632 9.82433 10.5757C9.93685 10.6882 10.0001 10.8408 10.0001 11V13.8C10.0001 13.9591 9.93685 14.1117 9.82433 14.2242C9.71181 14.3368 9.5592 14.4 9.40007 14.4C9.24094 14.4 9.08833 14.3368 8.9758 14.2242C8.86328 14.1117 8.80007 13.9591 8.80007 13.8V11C8.80007 10.8408 8.86328 10.6882 8.9758 10.5757C9.08833 10.4632 9.24094 10.4 9.40007 10.4ZM13.2001 7.79998C13.2001 7.64085 13.1369 7.48823 13.0243 7.37571C12.9118 7.26319 12.7592 7.19998 12.6001 7.19998C12.4409 7.19998 12.2883 7.26319 12.1758 7.37571C12.0633 7.48823 12.0001 7.64085 12.0001 7.79998V13.8C12.0001 13.9591 12.0633 14.1117 12.1758 14.2242C12.2883 14.3368 12.4409 14.4 12.6001 14.4C12.7592 14.4 12.9118 14.3368 13.0243 14.2242C13.1369 14.1117 13.2001 13.9591 13.2001 13.8V7.79998Z" fill="white" fill-opacity="0.6"/>
</svg>
