<svg width="128" height="104" viewBox="0 0 128 104" fill="none" xmlns="http://www.w3.org/2000/svg">
<path fill-rule="evenodd" clip-rule="evenodd" d="M64.132 51.7092C79.8991 51.7092 92.9981 49.0493 96.2729 45.4839C93.5303 42.442 83.706 40.0898 71.1392 39.4849V47.0013C68.9288 47.1534 66.5695 47.1534 64.132 47.1534C61.6946 47.1534 59.4133 47.0756 57.1248 46.9235V39.4849C44.558 40.1676 34.7337 42.5198 31.9912 45.4803C35.1914 49.0528 48.3685 51.7057 64.1356 51.7057M92.0863 16.3981V26.7265H71.0683V33.8609C85.8419 34.6214 96.8867 37.734 96.9612 41.5294V49.35C96.8867 53.1488 85.8419 56.2615 71.0647 57.0185V74.5626H57.1248V57.0963C42.3512 56.3358 31.3064 53.2231 31.2284 49.4278V41.5294C31.3064 37.734 42.3512 34.6214 57.1284 33.8609V26.7265H36.1033V16.3981H92.0863ZM27.8791 0H101.605C103.355 0 104.955 0.912578 105.87 2.43L127.346 39.1807C127.891 40.1059 128.104 41.188 127.952 42.2501C127.8 43.3121 127.291 44.2913 126.508 45.0276L67.4068 102.577C66.4856 103.488 65.2402 104 63.9422 104C62.6442 104 61.3988 103.488 60.4776 102.577L1.45047 45.1019C0.673835 44.328 0.177399 43.3186 0.0393034 42.2325C-0.0987923 41.1465 0.129294 40.0455 0.68766 39.1029L23.689 2.27791C24.1509 1.58901 24.7733 1.02194 25.5031 0.62523C26.2328 0.228523 27.0481 0.0139932 27.8791 0Z" fill="white"/>
</svg>
