<svg width="40" height="40" viewBox="0 0 40 40" fill="none" xmlns="http://www.w3.org/2000/svg">
<path d="M6.66667 35C6.19445 35 5.79889 34.84 5.48001 34.52C5.16112 34.2 5.00112 33.8044 5.00001 33.3333C4.99889 32.8622 5.15889 32.4667 5.48001 32.1467C5.80112 31.8267 6.19667 31.6667 6.66667 31.6667H8.33334V21.6667H6.66667C6.19445 21.6667 5.79889 21.5067 5.48001 21.1867C5.16112 20.8667 5.00112 20.4711 5.00001 20C4.99889 19.5289 5.15889 19.1333 5.48001 18.8133C5.80112 18.4933 6.19667 18.3333 6.66667 18.3333H8.33334V8.33333H6.66667C6.19445 8.33333 5.79889 8.17333 5.48001 7.85333C5.16112 7.53333 5.00112 7.13778 5.00001 6.66667C4.99889 6.19556 5.15889 5.8 5.48001 5.48C5.80112 5.16 6.19667 5 6.66667 5H33.3333C33.8056 5 34.2017 5.16 34.5217 5.48C34.8417 5.8 35.0011 6.19556 35 6.66667C34.9989 7.13778 34.8389 7.53389 34.52 7.855C34.2011 8.17611 33.8056 8.33556 33.3333 8.33333H31.6667V18.3333H33.3333C33.8056 18.3333 34.2017 18.4933 34.5217 18.8133C34.8417 19.1333 35.0011 19.5289 35 20C34.9989 20.4711 34.8389 20.8672 34.52 21.1883C34.2011 21.5094 33.8056 21.6689 33.3333 21.6667H31.6667V31.6667H33.3333C33.8056 31.6667 34.2017 31.8267 34.5217 32.1467C34.8417 32.4667 35.0011 32.8622 35 33.3333C34.9989 33.8044 34.8389 34.2006 34.52 34.5217C34.2011 34.8428 33.8056 35.0022 33.3333 35H6.66667ZM11.6667 31.6667H28.3333V21.6667C27.8611 21.6667 27.4656 21.5067 27.1467 21.1867C26.8278 20.8667 26.6678 20.4711 26.6667 20C26.6656 19.5289 26.8256 19.1333 27.1467 18.8133C27.4678 18.4933 27.8633 18.3333 28.3333 18.3333V8.33333H11.6667V18.3333C12.1389 18.3333 12.535 18.4933 12.855 18.8133C13.175 19.1333 13.3345 19.5289 13.3333 20C13.3322 20.4711 13.1722 20.8672 12.8533 21.1883C12.5345 21.5094 12.1389 21.6689 11.6667 21.6667V31.6667ZM23.5417 25.2283C24.5139 24.2717 25 23.1122 25 21.75C25 20.6667 24.6878 19.7361 24.0633 18.9583C23.4389 18.1806 22.0845 16.5833 20 14.1667C17.9167 16.5556 16.5628 18.1461 15.9383 18.9383C15.3139 19.7306 15.0011 20.6678 15 21.75C15 23.1111 15.4861 24.2711 16.4583 25.23C17.4306 26.1889 18.6111 26.6678 20 26.6667C21.3889 26.6656 22.5695 26.185 23.5417 25.2283Z" fill="white"/>
</svg>
