<svg width="40" height="40" viewBox="0 0 40 40" fill="none" xmlns="http://www.w3.org/2000/svg">
<path d="M14 35C11.4722 35 9.34 34.1322 7.60333 32.3967C5.86667 30.6611 4.99889 28.5289 5 26C5 24.9444 5.18056 23.9167 5.54167 22.9167C5.90278 21.9167 6.41667 21.0139 7.08333 20.2083L13 13.0833L10.1667 7.41667C9.88889 6.86111 9.91 6.31944 10.23 5.79167C10.55 5.26389 11.0289 5 11.6667 5H28.3333C28.9722 5 29.4517 5.26389 29.7717 5.79167C30.0917 6.31944 30.1122 6.86111 29.8333 7.41667L27 13.0833L32.9167 20.2083C33.5833 21.0139 34.0972 21.9167 34.4583 22.9167C34.8194 23.9167 35 24.9444 35 26C35 28.5278 34.125 30.66 32.375 32.3967C30.625 34.1333 28.5 35.0011 26 35H14ZM20 26.6667C19.0833 26.6667 18.2989 26.3406 17.6467 25.6883C16.9944 25.0361 16.6678 24.2511 16.6667 23.3333C16.6656 22.4156 16.9922 21.6311 17.6467 20.98C18.3011 20.3289 19.0856 20.0022 20 20C20.9144 19.9978 21.6994 20.3244 22.355 20.98C23.0106 21.6356 23.3367 22.42 23.3333 23.3333C23.33 24.2467 23.0039 25.0317 22.355 25.6883C21.7061 26.345 20.9211 26.6711 20 26.6667ZM16.0417 11.6667H23.9583L25.625 8.33333H14.375L16.0417 11.6667ZM14 31.6667H26C27.5833 31.6667 28.9239 31.1183 30.0217 30.0217C31.1194 28.925 31.6678 27.5844 31.6667 26C31.6667 25.3333 31.5483 24.6878 31.3117 24.0633C31.075 23.4389 30.7489 22.8761 30.3333 22.375L24.2083 15H15.8333L9.66667 22.3333C9.25 22.8333 8.92389 23.4028 8.68833 24.0417C8.45278 24.6806 8.33445 25.3333 8.33333 26C8.33333 27.5833 8.88222 28.9239 9.98 30.0217C11.0778 31.1194 12.4178 31.6678 14 31.6667Z" fill="white"/>
</svg>
