<svg width="40" height="40" viewBox="0 0 40 40" fill="none" xmlns="http://www.w3.org/2000/svg">
<path d="M17.4167 21.625L19.5833 23.7917C19.8889 24.0972 20.2778 24.25 20.75 24.25C21.2222 24.25 21.6111 24.0972 21.9167 23.7917L26.6667 19.0417V20.0417C26.6667 20.5139 26.8267 20.9028 27.1467 21.2083C27.4667 21.5139 27.8622 21.6667 28.3333 21.6667C28.8044 21.6667 29.2006 21.5072 29.5217 21.1883C29.8428 20.8694 30.0022 20.4733 30 20V15C30 14.5278 29.84 14.1322 29.52 13.8133C29.2 13.4944 28.8044 13.3344 28.3333 13.3333H23.2917C22.8194 13.3333 22.4306 13.4933 22.125 13.8133C21.8194 14.1333 21.6667 14.5289 21.6667 15C21.6667 15.4711 21.8267 15.8672 22.1467 16.1883C22.4667 16.5094 22.8622 16.6689 23.3333 16.6667H24.2917L20.75 20.25L18.5833 18.0833C18.2778 17.75 17.8889 17.5833 17.4167 17.5833C16.9444 17.5833 16.5556 17.75 16.25 18.0833L11.1667 23.1667C10.8333 23.4722 10.6667 23.8611 10.6667 24.3333C10.6667 24.8056 10.8333 25.1944 11.1667 25.5C11.4722 25.8333 11.8611 26 12.3333 26C12.8056 26 13.1944 25.8333 13.5 25.5L17.4167 21.625ZM8.33333 35C7.41667 35 6.63222 34.6739 5.98 34.0217C5.32778 33.3694 5.00111 32.5844 5 31.6667V8.33333C5 7.41667 5.32667 6.63222 5.98 5.98C6.63333 5.32778 7.41778 5.00111 8.33333 5H31.6667C32.5833 5 33.3683 5.32667 34.0217 5.98C34.675 6.63333 35.0011 7.41778 35 8.33333V31.6667C35 32.5833 34.6739 33.3683 34.0217 34.0217C33.3694 34.675 32.5844 35.0011 31.6667 35H8.33333ZM8.33333 31.6667H31.6667V8.33333H8.33333V31.6667Z" fill="white"/>
</svg>
