<svg width="24" height="24" viewBox="0 0 24 24" fill="none" xmlns="http://www.w3.org/2000/svg">
<g opacity="0.2" clip-path="url(#clip0_2078_10481)">
<path fill-rule="evenodd" clip-rule="evenodd" d="M18.0454 10.9377C18.2328 11.1252 18.3381 11.3795 18.3381 11.6447C18.3381 11.9099 18.2328 12.1642 18.0454 12.3517L12.3884 18.0087C12.2961 18.1042 12.1858 18.1804 12.0638 18.2328C11.9418 18.2852 11.8105 18.3128 11.6778 18.314C11.545 18.3151 11.4133 18.2898 11.2904 18.2395C11.1675 18.1893 11.0559 18.115 10.962 18.0211C10.8681 17.9272 10.7938 17.8156 10.7435 17.6927C10.6933 17.5698 10.668 17.4381 10.6691 17.3053C10.6703 17.1725 10.6979 17.0413 10.7503 16.9193C10.8027 16.7973 10.8789 16.687 10.9744 16.5947L15.9244 11.6447L10.9744 6.69471C10.7922 6.50611 10.6914 6.25351 10.6937 5.99131C10.696 5.72911 10.8011 5.4783 10.9865 5.29289C11.172 5.10748 11.4228 5.00232 11.685 5.00004C11.9472 4.99776 12.1998 5.09855 12.3884 5.28071L18.0454 10.9377Z" fill="white"/>
<path fill-rule="evenodd" clip-rule="evenodd" d="M12.3763 10.9377C12.5638 11.1252 12.6691 11.3795 12.6691 11.6447C12.6691 11.9099 12.5638 12.1642 12.3763 12.3517L6.71929 18.0087C6.62704 18.1042 6.5167 18.1804 6.39469 18.2328C6.27269 18.2852 6.14147 18.3128 6.00869 18.314C5.87591 18.3151 5.74423 18.2898 5.62133 18.2395C5.49844 18.1893 5.38679 18.115 5.29289 18.0211C5.199 17.9272 5.12475 17.8156 5.07447 17.6927C5.02419 17.5698 4.99888 17.4381 5.00004 17.3053C5.00119 17.1725 5.02878 17.0413 5.08119 16.9193C5.1336 16.7973 5.20978 16.687 5.30529 16.5947L10.2553 11.6447L5.30529 6.69471C5.12313 6.50611 5.02234 6.25351 5.02461 5.99131C5.02689 5.72911 5.13206 5.4783 5.31747 5.29289C5.50288 5.10748 5.75369 5.00232 6.01589 5.00004C6.27808 4.99776 6.53069 5.09855 6.71929 5.28071L12.3763 10.9377Z" fill="white"/>
</g>
<defs>
<clipPath id="clip0_2078_10481">
<rect width="24" height="24" fill="white"/>
</clipPath>
</defs>
</svg>
