<svg width="46" height="44" viewBox="0 0 46 44" fill="none" xmlns="http://www.w3.org/2000/svg">
<path fill-rule="evenodd" clip-rule="evenodd" d="M22.9676 21.8966C28.5569 21.8966 33.2004 20.9508 34.3613 19.683C33.389 18.6014 29.9064 17.765 25.4516 17.5499V20.2226C24.668 20.2767 23.8316 20.2767 22.9676 20.2767C22.1035 20.2767 21.2948 20.249 20.4836 20.1949V17.5499C16.0287 17.7927 12.5461 18.6291 11.5739 19.6818C12.7084 20.9521 17.3795 21.8953 22.9688 21.8953M32.8771 9.3408V13.0133H25.4264V15.5502C30.6636 15.8206 34.5788 16.9274 34.6053 18.2769V21.0577C34.5788 22.4085 30.6636 23.5153 25.4252 23.7844V30.0227H20.4836V23.8121C15.2464 23.5417 11.3312 22.4349 11.3035 21.0854V18.2769C11.3312 16.9274 15.2464 15.8206 20.4848 15.5502V13.0133H13.0316V9.3408H32.8771ZM10.1162 3.51001H36.2516C36.8717 3.51001 37.4389 3.8345 37.7634 4.37406L45.3764 17.4418C45.5695 17.7707 45.6453 18.1555 45.5914 18.5332C45.5374 18.9108 45.357 19.259 45.0795 19.5208L24.1285 39.9839C23.8019 40.3081 23.3604 40.49 22.9003 40.49C22.4401 40.49 21.9987 40.3081 21.6721 39.9839L0.747456 19.5472C0.472146 19.272 0.296163 18.9131 0.247209 18.5269C0.198255 18.1407 0.27911 17.7493 0.477046 17.4141L8.63084 4.31998C8.79458 4.07502 9.01523 3.87339 9.27391 3.73233C9.5326 3.59127 9.8216 3.51499 10.1162 3.51001Z" fill="white"/>
</svg>
