<svg width="21" height="20" viewBox="0 0 21 20" fill="none" xmlns="http://www.w3.org/2000/svg">
<path fill-rule="evenodd" clip-rule="evenodd" d="M10.4399 9.95325C12.9804 9.95325 15.0911 9.52334 15.6188 8.94707C15.1769 8.45542 13.5939 8.07524 11.5689 7.97748V9.19233C11.2128 9.21691 10.8326 9.21691 10.4399 9.21691C10.0471 9.21691 9.6795 9.20433 9.31076 9.17975V7.97748C7.28584 8.08782 5.70283 8.46799 5.26091 8.9465C5.77657 9.52391 7.89983 9.95267 10.4404 9.95267M14.9442 4.24606V5.9154H11.5575V7.0685C13.938 7.19141 15.7177 7.6945 15.7297 8.30792V9.57193C15.7177 10.1859 13.938 10.689 11.5569 10.8114V13.6469H9.31076V10.8239C6.93024 10.701 5.15057 10.1979 5.13799 9.58451V8.30792C5.15057 7.6945 6.93024 7.19141 9.31134 7.0685V5.9154H5.9235V4.24606H14.9442ZM4.59832 1.5957H16.478C16.7599 1.5957 17.0177 1.7432 17.1652 1.98845L20.6257 7.92832C20.7134 8.07786 20.7479 8.25275 20.7234 8.4244C20.6989 8.59606 20.6169 8.75432 20.4907 8.87332L10.9675 18.1747C10.8191 18.3221 10.6184 18.4048 10.4093 18.4048C10.2001 18.4048 9.99944 18.3221 9.85101 18.1747L0.339797 8.88533C0.214656 8.76025 0.134664 8.5971 0.112412 8.42157C0.0901604 8.24604 0.126913 8.06809 0.216884 7.91574L3.92315 1.96387C3.99758 1.85253 4.09788 1.76087 4.21546 1.69676C4.33304 1.63264 4.46441 1.59796 4.59832 1.5957Z" fill="white"/>
</svg>
