<svg width="20" height="20" viewBox="0 0 20 20" fill="none" xmlns="http://www.w3.org/2000/svg">
<g clip-path="url(#clip0_2073_5184)">
<path d="M19.6999 12.4192C18.3643 17.7764 12.9384 21.0367 7.58055 19.7008C2.22492 18.3652 -1.03539 12.9389 0.300862 7.58206C1.63586 2.22425 7.0618 -1.03638 12.418 0.299249C17.7755 1.63487 21.0355 7.06175 19.6999 12.4192Z" fill="white"/>
<path d="M14.4092 8.57531C14.6082 7.24469 13.5951 6.52938 12.2098 6.05219L12.6592 4.24969L11.562 3.97625L11.1245 5.73125C10.8361 5.65938 10.5398 5.59156 10.2454 5.52437L10.6861 3.75781L9.5895 3.48438L9.13981 5.28625C8.90106 5.23188 8.66668 5.17813 8.43918 5.12156L8.44043 5.11594L6.92731 4.73813L6.63543 5.91C6.63543 5.91 7.4495 6.09656 7.43231 6.10812C7.87668 6.21906 7.957 6.51312 7.94356 6.74625L7.43168 8.79969C7.46231 8.8075 7.502 8.81875 7.54575 8.83625C7.50918 8.82719 7.47012 8.81719 7.42981 8.8075L6.71231 11.6841C6.65793 11.8191 6.52012 12.0216 6.2095 11.9447C6.22043 11.9606 5.412 11.7456 5.412 11.7456L4.86731 13.0016L6.29512 13.3575C6.56075 13.4241 6.82106 13.4938 7.07731 13.5594L6.62325 15.3825L7.71918 15.6559L8.16887 13.8522C8.46825 13.9334 8.75887 14.0084 9.04325 14.0791L8.59512 15.8744L9.69231 16.1478L10.1464 14.3281C12.0173 14.6822 13.4242 14.5394 14.0164 12.8472C14.4936 11.4847 13.9926 10.6987 13.0082 10.1862C13.7251 10.0209 14.2651 9.54938 14.4092 8.57531ZM11.9023 12.0906C11.5632 13.4531 9.26918 12.7166 8.52543 12.5319L9.12793 10.1166C9.87168 10.3022 12.2567 10.6697 11.9023 12.0906ZM12.2417 8.55563C11.9323 9.795 10.0229 9.16531 9.40356 9.01094L9.94981 6.82031C10.5692 6.97469 12.5639 7.26281 12.2417 8.55563Z" fill="#0B0E11"/>
</g>
<defs>
<clipPath id="clip0_2073_5184">
<rect width="20" height="20" fill="white"/>
</clipPath>
</defs>
</svg>
