<svg width="20" height="20" viewBox="0 0 20 20" fill="none" xmlns="http://www.w3.org/2000/svg">
<g clip-path="url(#clip0_2073_5201)">
<circle cx="10" cy="10" r="10" fill="white"/>
<g clip-path="url(#clip1_2073_5201)">
<path d="M6.31748 12.114C6.38331 12.0482 6.47383 12.0098 6.56984 12.0098H15.2763C15.4354 12.0098 15.5149 12.2018 15.4024 12.3142L13.6825 14.0341C13.6167 14.1 13.5262 14.1384 13.4302 14.1384H4.72377C4.56468 14.1384 4.48513 13.9464 4.59759 13.8339L6.31748 12.114Z" fill="#0B0E11"/>
<path d="M6.31736 5.69261C6.38593 5.62678 6.47645 5.58838 6.56972 5.58838H15.2761C15.4352 5.58838 15.5148 5.78039 15.4023 5.89286L13.6824 7.61274C13.6166 7.67858 13.5261 7.71698 13.4301 7.71698H4.72365C4.56455 7.71698 4.48501 7.52497 4.59747 7.4125L6.31736 5.69261Z" fill="#0B0E11"/>
<path d="M13.6825 8.88304C13.6167 8.81721 13.5262 8.77881 13.4302 8.77881H4.72377C4.56468 8.77881 4.48513 8.97082 4.59759 9.08329L6.31748 10.8032C6.38331 10.869 6.47383 10.9074 6.56984 10.9074H15.2763C15.4354 10.9074 15.5149 10.7154 15.4024 10.6029L13.6825 8.88304Z" fill="#0B0E11"/>
</g>
</g>
<defs>
<clipPath id="clip0_2073_5201">
<rect width="20" height="20" fill="white"/>
</clipPath>
<clipPath id="clip1_2073_5201">
<rect width="10.9091" height="8.55006" fill="white" transform="translate(4.54541 5.58838)"/>
</clipPath>
</defs>
</svg>
