<svg width="20" height="20" viewBox="0 0 20 20" fill="none" xmlns="http://www.w3.org/2000/svg">
<g clip-path="url(#clip0_2073_5209)">
<circle cx="10" cy="10" r="10" fill="white"/>
<g clip-path="url(#clip1_2073_5209)">
<path d="M13.8566 5.61768H15.4333L12.1521 8.86654C10.9638 10.0425 9.03721 10.0425 7.84808 8.86654L4.56555 5.61768H6.14353L8.63643 8.08564C8.99965 8.44362 9.48914 8.6443 9.99911 8.6443C10.5091 8.6443 10.9986 8.44362 11.3618 8.08564L13.8566 5.61768Z" fill="#0B0E11"/>
<path d="M6.12318 14.6518H4.54541L7.84797 11.3829C9.03625 10.207 10.9628 10.207 12.1519 11.3829L15.4545 14.6518H13.8778L11.3636 12.1638C11.0004 11.8058 10.5109 11.6052 10.0009 11.6052C9.49094 11.6052 9.00145 11.8058 8.63824 12.1638L6.12318 14.6518Z" fill="#0B0E11"/>
</g>
</g>
<defs>
<clipPath id="clip0_2073_5209">
<rect width="20" height="20" fill="white"/>
</clipPath>
<clipPath id="clip1_2073_5209">
<rect width="10.9091" height="9.03409" fill="white" transform="translate(4.54541 5.61768)"/>
</clipPath>
</defs>
</svg>
